<svg width="481" height="279" viewBox="0 0 481 279" fill="none" xmlns="http://www.w3.org/2000/svg">
<g clip-path="url(#clip0_116_199)">
<path d="M480.2 124.6V117.4L409.6 117.3C424 108.6 435.4 101.5 449.6 92.6L466.6 82L465.1 78.4C453 49.2 421.5 0.1 346.2 0H346C344.5 0 343 6.10203e-06 341 0.100006H147.8C145.9 6.10203e-06 144.3 0 142.9 0H142.7C106 0 71.5996 11.8 45.9996 33.1C15.9996 58.1 -0.000416731 94.7 -0.000416731 138.8C-0.100417 178.1 13.1996 213.5 37.3996 238.7C60.6996 262.9 92.5996 276.7 129.7 278.6V278.8L341.7 278.9H342C343.5 278.9 344.9 278.9 346.4 278.8H347.6C386.5 277.7 419.2 264.6 442.1 240.9C468.6 213.4 481.8 173.2 480.2 124.6ZM393 126.6H412.9C414.1 171.8 401.7 209.1 377.2 234.4C361.8 250.3 338.6 262.5 313.7 268C329.7 260.9 345.1 250.7 354.8 240.8C381 213.8 394.2 174.3 393 126.6ZM363.5 110.1C364.181 112.459 364.682 114.866 365 117.3H351.6C355.8 114.8 359.7 112.4 363.5 110.1ZM322.6 117.3C326.5 114.9 330.4 112.5 334.4 110.1C335.09 112.456 335.592 114.864 335.9 117.3H322.6ZM294.3 117.3H293.5C297.6 114.8 301.5 112.4 305.3 110.1C305.99 112.456 306.492 114.864 306.8 117.3H294.3ZM265.7 117.3H264.5C268.6 114.8 272.5 112.4 276.3 110.1C276.99 112.456 277.492 114.864 277.8 117.3H265.7ZM248.7 117.2H235.3C239.3 114.8 243.2 112.4 247.1 110C247.849 112.347 248.385 114.757 248.7 117.2ZM219.7 117.2H206.4C210.3 114.8 214.2 112.4 218.2 110C218.871 112.361 219.372 114.767 219.7 117.2ZM190.6 117.2H172.3C174.106 109.289 177.324 101.769 181.8 95C186.431 101.609 189.445 109.213 190.6 117.2ZM160.6 85.9C162.71 83.8814 164.984 82.0417 167.4 80.4C170.426 82.5226 173.239 84.9339 175.8 87.6C169.465 96.4492 165.069 106.536 162.9 117.2H143.3C146.4 104.4 152.3 93.8 160.6 85.9ZM149.9 181.8H168.5C170.811 186.852 173.806 191.563 177.4 195.8C175.243 197.961 172.824 199.842 170.2 201.4C165.01 198.798 160.361 195.235 156.5 190.9C153.984 188.108 151.772 185.058 149.9 181.8ZM125.1 79.2C114.7 89.1 102.3 107.9 102.2 141C102.2 171.8 113 195.3 132.8 207.5C117.8 205.9 105.5 199.6 96.7996 189.1C87.2996 177.6 82.2996 160.9 82.2996 141C82.2996 117.4 89.2996 98.4 102.3 85.9C111.4 77.2 123.8 71.7 135.7 71.1C131.896 73.4271 128.344 76.1415 125.1 79.2ZM139.6 181.8C142.245 187.341 145.644 192.49 149.7 197.1C152.63 200.329 155.918 203.214 159.5 205.7C158.316 206.035 157.114 206.302 155.9 206.5C127.6 200.8 111.4 176.9 111.4 141C111.4 117.4 118.4 98.4 131.4 85.9C137.457 80.0945 144.784 75.7804 152.8 73.3C154.748 73.9019 156.652 74.6369 158.5 75.5C156.967 76.6877 155.498 77.9561 154.1 79.3C147.1 85.9 138 97.9 133.7 117.3H122.4L122.3 181.9L139.6 181.8ZM179.2 181.9H185.2C184.71 183.903 184.006 185.848 183.1 187.7C181.686 185.846 180.383 183.909 179.2 181.9ZM415.6 84.9C400.6 94.2 388.7 101.6 373.2 111C372.7 109.1 372.2 107.1 371.5 105.1C377.9 101.1 384.4 97.1 391.4 92.7L408.6 82L407.1 78.4C397.4 54.8 375.7 25.4 343 9.89999C396.2 21.3 419.6 63.8 426.1 78.3L415.6 84.9ZM386.5 84.9C372.2 93.8 359.8 101.6 344.2 111C343.7 109.1 343.2 107.1 342.5 105.1C348.6 101.3 354.8 97.5 361.4 93.3L379.5 82L378 78.4C368.3 54.8 346.6 25.4 313.9 9.89999C367.1 21.3 390.5 63.8 397 78.3L386.5 84.9ZM357.4 84.9C342.5 94.2 330.6 101.6 315.1 111C314.6 109.1 314.1 107.1 313.4 105.1C319.9 101.1 326.3 97.1 333.4 92.7L350.4 82.1L348.9 78.5C339.2 54.9 317.5 25.5 284.8 10C338 21.4 361.4 63.9 367.9 78.4L357.4 84.9ZM328.2 85.1C313.3 94.4 301.5 101.8 286 111.1C285.5 109.2 285 107.2 284.3 105.2C290.7 101.2 297.1 97.3 304.1 92.9L321.4 82.2L319.9 78.6C310.2 55 288.5 25.6 255.8 10.1C309 21.5 332.4 64 338.9 78.5L328.2 85.1ZM298.9 85.2C284.1 94.4 272.3 101.8 256.9 111.1C256.4 109.2 255.9 107.2 255.2 105.2C261.7 101.2 268.1 97.2 275.1 92.8L292.2 82.1L290.7 78.5C281 54.9 259.3 25.5 226.6 10C279.8 21.4 303.2 63.9 309.7 78.4L298.9 85.2ZM270.3 84.9C255.4 94.2 243.5 101.6 227.9 111C227.4 109.1 226.9 107.1 226.2 105.1C232.2 101.4 238.3 97.6 244.8 93.6L263.2 82.1L261.7 78.5C252 54.9 230.3 25.5 197.6 10C250.8 21.4 274.1 63.9 280.7 78.4L270.3 84.9ZM241.2 84.9C226.9 93.8 214.5 101.5 198.9 111C193.3 86.6 169.5 61.8 138.3 61.7C123.4 61.7 107.6 68.2 96.1996 79.2C85.7996 89.1 73.3996 107.9 73.2996 141C73.1996 188.6 98.4996 217 140.9 217.1H141C172.5 217.1 192.3 202.8 195.3 177.8L195.9 172.7L131.7 172.6L131.8 126.4L267.6 126.6C268.8 171.8 256.4 209.1 231.9 234.4C209.3 257.8 177.8 269.6 138.4 269.6H138.1C99.7996 269.5 67.2996 256.7 43.8996 232.3C21.3996 208.9 8.99957 175.7 9.09957 138.8C9.19957 97.5 23.8996 63.3 51.7996 40.1C75.7996 20.1 108 9.10001 142.6 9.10001H142.8C210.4 9.20001 239.9 52.1 251.6 78.3L241.2 84.9ZM238.5 240.8C264.7 213.7 278 174.2 276.8 126.6H296.7C297.9 171.8 285.5 209.1 261 234.4C245.6 250.3 222.4 262.5 197.5 268C213.4 260.9 228.9 250.8 238.5 240.8ZM267.5 240.8C293.8 213.8 307 174.3 305.8 126.6H325.7C326.9 171.8 314.5 209.1 290 234.4C274.6 250.3 251.4 262.5 226.5 268C242.5 260.9 257.9 250.8 267.5 240.8ZM296.6 240.8C322.8 213.7 336.1 174.2 334.9 126.6H354.8C356 171.8 343.6 209.1 319.1 234.4C303.7 250.3 280.5 262.5 255.6 268C271.5 260.9 287 250.8 296.6 240.8ZM325.7 240.8C351.9 213.7 365.2 174.2 364 126.6H383.9C385.1 171.8 372.7 209.1 348.2 234.4C332.8 250.3 309.6 262.5 284.7 268C300.6 260.9 316.1 250.8 325.7 240.8ZM394.1 117.3H380.7C384.6 114.9 388.5 112.5 392.6 110C393.281 112.393 393.782 114.833 394.1 117.3ZM420.5 92.7L437.6 82L436.1 78.4C426.4 54.8 404.7 25.4 372 9.89999C425.2 21.3 448.6 63.8 455.1 78.3L444.3 85C429.4 94.3 417.6 101.6 402.2 110.9C401.7 109 401.2 107 400.5 105C407 101.1 413.4 97.1 420.5 92.7ZM422.1 126.6H442C443.2 171.8 430.8 209.1 406.3 234.4C390.9 250.3 367.7 262.5 342.8 268C358.8 260.9 374.2 250.7 383.9 240.8C410 213.8 423.3 174.3 422.1 126.6ZM451.2 126.6H471.1C472.3 171.8 459.9 209.1 435.4 234.4C420 250.3 396.8 262.5 371.9 268C387.9 260.9 403.3 250.7 413 240.8C439.1 213.8 452.3 174.3 451.2 126.6Z" fill="white"/>
</g>
<defs>
<clipPath id="clip0_116_199">
<rect width="480.33" height="278.9" fill="white"/>
</clipPath>
</defs>
</svg>
