<svg width="1334" height="1334" viewBox="0 0 1334 1334" fill="none" xmlns="http://www.w3.org/2000/svg">
<path d="M671.977 565.351C672.317 567.862 672.639 570.422 672.924 573.086C674.759 590.221 675.677 611.028 675.677 635.507C675.677 735.468 656.306 785.438 617.572 785.438C581.93 785.438 563.419 748.914 562.01 675.897L360 878.972C362.756 884.469 365.627 889.815 368.637 894.98C404.924 957 454.055 988 516.041 988C587.392 988 644.273 946.385 686.686 863.159C685.463 875.396 684.241 891.519 683.018 911.503C681.793 931.497 680.159 952.506 678.124 974.535H924V313H923.005L671.977 565.351Z" fill="white"/>
</svg>
