<svg width="242" height="242" viewBox="0 0 242 242" fill="none" xmlns="http://www.w3.org/2000/svg">
<path d="M114.686 30L114.686 8.24998L129.746 8.24997L129.746 11.16L118.106 11.16L118.106 17.37L129.086 17.37L129.086 20.25L118.106 20.25L118.106 27.09L129.746 27.09L129.746 30L114.686 30Z" fill="white"/>
<path d="M148.156 26.1856L148.384 25.0381C143.377 24.5314 140.647 24.7226 140.243 26.7528C139.956 28.1945 140.893 29.3291 142.776 29.7036C145.277 30.2011 147.529 29.3339 148.156 26.1856ZM141.631 31.9229C138.424 31.285 136.333 29.0338 136.906 26.1503C137.673 22.2958 142.444 22.1437 148.687 22.7432L148.752 22.4195C149.308 19.6243 148.024 18.3901 146.082 18.0038C143.963 17.5824 142.546 18.4017 142.037 20.3497L138.947 19.7351C139.856 16.3982 143.049 14.9535 146.668 15.6733C150.758 16.4869 152.69 18.9206 151.718 23.6519C151.642 24.0345 151.039 26.7591 150.905 27.4359C150.43 29.8192 150.197 31.761 150.21 33.2318L147.268 32.6466C147.273 32.0053 147.302 31.5522 147.419 30.5048C146.155 31.9358 144.22 32.438 141.631 31.9229Z" fill="white"/>
<path d="M161.922 21.1543L163.506 17.3294L166.388 18.5234L164.804 22.3483L167.742 23.5652L166.835 25.7548L163.897 24.5379L160.373 33.0468C159.741 34.5712 159.83 35.0625 161.271 35.6595L162.491 36.1647L161.538 38.4651L159.431 37.5926C156.41 36.3412 156.055 35.3174 157.329 32.2408L161.015 23.3439L158.742 22.4025L159.649 20.2129L161.922 21.1543Z" fill="white"/>
<path d="M181.737 53.7645L181.525 53.213L188.058 48.9703L181.525 44.7277L181.737 44.1762L189.416 45.3217L188.228 37.6849L188.78 37.4728L193.065 43.964L197.265 37.4728L197.816 37.6849L196.671 45.3641L204.308 44.1761L204.52 44.7277L198.071 48.9703L204.52 53.213L204.308 53.7645L196.671 52.5766L197.816 60.2558L197.265 60.4679L193.065 53.9767L188.78 60.4679L188.228 60.2558L189.416 52.619L181.737 53.7645Z" fill="white"/>
<path d="M217.404 87.4878C223.972 84.7669 223.201 80.4753 221.537 76.4564L220.63 74.2668L205.746 80.4318L206.653 82.6214C208.318 86.6403 210.779 90.2316 217.404 87.4878ZM221.926 70.0279L224.2 75.5158C226.84 81.8906 226.491 87.5552 218.758 90.7583C210.998 93.9728 206.746 90.2139 204.105 83.8392L201.832 78.3513L221.926 70.0279Z" fill="white"/>
<path d="M213.523 104.978C213.968 107.214 215.125 108.269 216.761 108.647L217.375 111.736C214.616 111.551 211.723 109.618 210.927 105.617C209.915 100.526 213.096 96.9878 217.686 96.0748C222.6 95.0974 226.521 97.7432 227.417 102.245C228.388 107.129 224.954 110.779 219.741 111.48L217.341 99.4162C214.463 100.325 213.025 102.477 213.523 104.978ZM224.91 102.713C224.436 100.33 222.884 98.8337 219.765 98.9952L221.521 107.822C223.828 107.272 225.407 105.214 224.91 102.713Z" fill="white"/>
<path d="M224.64 130.489L224.64 127.399C226.32 126.949 226.95 125.569 226.95 123.739C226.95 122.209 226.32 120.559 225 120.559C223.8 120.559 223.32 121.339 222.99 122.809L222.54 125.119C221.91 128.149 220.92 130.849 217.74 130.849C214.47 130.849 212.61 127.789 212.61 124.069C212.61 119.959 214.98 117.499 218.01 117.109L218.01 120.289C216.18 120.739 215.1 121.879 215.1 124.159C215.1 126.199 215.94 127.729 217.38 127.729C218.85 127.729 219.48 126.319 219.81 124.639L220.29 122.209C220.77 119.779 221.82 117.499 224.88 117.499C227.73 117.499 229.47 120.529 229.47 124.039C229.47 127.309 227.76 129.859 224.64 130.489Z" fill="white"/>
<path d="M226.386 140.37L225.777 143.43L209.948 140.281L210.556 137.221L226.386 140.37ZM231.888 141.464L231.28 144.524L227.896 143.851L228.505 140.791L231.888 141.464Z" fill="white"/>
<path d="M220.137 164.095L222.327 165.002L221.133 167.885L207.968 162.431C205.224 161.295 203.996 160.104 203.395 158.654C202.674 157.024 202.799 154.998 203.752 152.697C205.141 149.343 207.581 147.529 210.908 148.355L209.68 151.321C208.196 151.063 207.047 151.562 206.14 153.751C205.578 155.11 205.525 156.257 205.981 157.193C206.378 158.039 207 158.653 208.552 159.296L210.132 159.951C208.959 158.393 208.652 156.545 209.571 154.328C211.006 150.864 214.916 149.106 219.683 151.081C224.423 153.044 225.945 157.052 224.51 160.516C223.592 162.733 222.068 163.823 220.137 164.095ZM215.103 162.14C218.65 163.609 220.932 162.411 221.851 160.194C222.85 157.783 221.624 155.489 218.409 154.157C215.166 152.814 212.65 153.558 211.651 155.969C210.733 158.186 211.555 160.67 215.103 162.14Z" fill="white"/>
<path d="M212.042 178.593L210.096 177.293C210.902 178.949 210.875 180.88 209.475 182.975C207.308 186.218 204.379 186.065 201.261 183.981L192.805 178.331L194.539 175.737L202.296 180.921C204.217 182.204 206.238 183.121 207.888 180.652C209.405 178.382 208.525 176.243 205.831 174.443L198.622 169.626L200.355 167.032L213.775 175.999L212.042 178.593Z" fill="white"/>
<path d="M175.094 193.687L175.677 193.586L178.563 200.822L183.999 195.242L184.499 195.557L181.877 202.865L189.599 203.19L189.699 203.772L182.497 206.709L188.044 212.095L187.728 212.594L180.42 209.973L180.095 217.694L179.513 217.795L176.61 210.642L171.191 216.139L170.691 215.824L173.346 208.566L165.591 208.191L165.49 207.609L172.676 204.755L167.146 199.286L167.461 198.787L174.72 201.442L175.094 193.687Z" fill="white"/>
<path d="M139.961 219.738L142.685 219.747C145.838 219.762 149.061 220.895 149.775 224.485C150.577 228.516 146.773 231.23 143.154 231.95C139.212 232.734 135.53 231.601 133.822 227.474L137.058 226.831C138.262 229.191 140.715 229.529 142.745 229.125C144.305 228.815 146.836 227.547 146.391 225.311C146.04 223.545 144.476 222.908 142.546 222.894L139.91 222.868C136.357 222.841 132.368 222.319 131.508 217.994C130.665 213.757 134.316 210.736 138.435 209.917C143.349 208.94 147.277 211.003 148.637 215.382L145.342 216.037C144.139 213.218 141.904 212.133 138.874 212.736C136.078 213.292 134.423 214.967 134.839 217.056C135.278 219.263 137.601 219.718 139.961 219.738Z" fill="white"/>
<path d="M120.621 234.776L120.242 213.029L123.361 212.974L123.741 234.721L120.621 234.776Z" fill="white"/>
<path d="M105.931 214.356C103.668 214.082 102.305 214.854 101.436 216.29L98.3092 215.912C99.3443 213.348 102.082 211.201 106.132 211.69C111.285 212.313 113.657 216.437 113.096 221.084C112.495 226.057 108.759 228.96 104.203 228.41C99.2585 227.812 96.859 223.413 97.8164 218.24L110.028 219.716C110.06 216.698 108.463 214.661 105.931 214.356ZM104.538 225.882C106.951 226.173 108.855 225.164 109.673 222.151L100.738 221.071C100.543 223.435 102.007 225.576 104.538 225.882Z" fill="white"/>
<path d="M86.1376 208.111C84.0311 207.238 82.5112 207.615 81.2882 208.765L78.378 207.559C80.0649 205.368 83.2791 204.037 87.0485 205.598C91.8434 207.584 93.0185 212.195 91.2275 216.519C89.3102 221.147 84.9317 222.938 80.6911 221.181C76.0901 219.276 74.963 214.393 77.277 209.669L88.6407 214.376C89.4839 211.478 88.4935 209.087 86.1376 208.111ZM81.6946 218.837C83.9397 219.767 86.0456 219.308 87.6439 216.625L79.3289 213.181C78.5051 215.405 79.3387 217.861 81.6946 218.837Z" fill="white"/>
<path d="M65.8903 213.701L63.2961 211.968L64.6128 209.997C62.8563 210.844 60.9344 210.751 58.9389 209.417C55.8208 207.334 54.8852 202.956 57.8186 198.566C60.752 194.176 65.1711 193.34 68.2891 195.424C70.2846 196.757 71.1065 198.497 70.9963 200.444L75.1798 194.183L77.774 195.916L65.8903 213.701ZM67.896 205.3C70.1128 201.982 69.4332 199.327 67.4377 197.994C65.2676 196.544 62.6041 197.398 60.5874 200.416C58.5707 203.434 58.8174 206.197 60.9876 207.647C62.9831 208.98 65.6793 208.617 67.896 205.3Z" fill="white"/>
<path d="M48.3133 175.094L48.4137 175.677L41.1779 178.563L46.7584 183.999L46.4427 184.499L39.1345 181.877L38.8098 189.599L38.2275 189.699L35.2911 182.497L29.9052 188.044L29.4057 187.728L32.0273 180.42L24.3055 180.095L24.2051 179.513L31.3577 176.61L25.8605 171.191L26.1761 170.691L33.4344 173.346L33.809 165.591L34.3914 165.49L37.2445 172.676L42.7136 167.146L43.2132 167.461L40.5582 174.72L48.3133 175.094Z" fill="white"/>
<path d="M31.5878 135.918L23.4914 142.27C23.6086 142.705 23.7022 143.176 23.7959 143.647L24.5275 147.325L33.5016 145.54L34.1688 148.894L12.8368 153.137L11.4906 146.37C10.3494 140.632 10.871 136.95 15.8141 135.966C18.8742 135.358 20.8969 136.454 22.2534 138.968L30.8387 132.152L31.5878 135.918ZM14.1804 145.437L14.9354 149.233L21.7911 147.869L21.0244 144.015C20.3981 140.866 19.5001 138.812 16.5577 139.397C13.4977 140.006 13.5775 142.406 14.1804 145.437Z" fill="white"/>
<path d="M27.72 120.82C27.72 118.54 26.79 117.28 25.26 116.59L25.26 113.44C27.93 114.16 30.39 116.62 30.39 120.7C30.39 125.89 26.58 128.74 21.9 128.74C16.89 128.74 13.56 125.38 13.56 120.79C13.56 115.81 17.64 112.9 22.89 113.23L22.89 125.53C25.89 125.2 27.72 123.37 27.72 120.82ZM16.11 120.82C16.11 123.25 17.34 125.02 20.43 125.47L20.43 116.47C18.06 116.56 16.11 118.27 16.11 120.82Z" fill="white"/>
<path d="M14.6482 106.484L15.2569 103.424L17.5814 103.887C16.1268 102.588 15.4777 100.776 15.9459 98.4225C16.6775 94.7445 20.3638 92.2049 25.5423 93.235C30.7209 94.2651 33.1841 98.0279 32.4525 101.706C31.9843 104.06 30.6914 105.485 28.8506 106.128L36.2359 107.597L35.6272 110.657L14.6482 106.484ZM23.1779 105.122C27.0912 105.901 29.284 104.257 29.7522 101.903C30.2614 99.343 28.4529 97.2092 24.8927 96.501C21.3324 95.7928 18.8745 97.078 18.3653 99.6378C17.8971 101.992 19.2645 104.344 23.1779 105.122Z" fill="white"/>
<path d="M34.8891 83.1373C35.7616 81.0309 35.3846 79.5109 34.2351 78.2879L35.4406 75.3777C37.6318 77.0646 38.9631 80.2788 37.4018 84.0482C35.4157 88.8431 30.805 90.0182 26.4813 88.2272C21.8526 86.31 20.0619 81.9314 21.8184 77.6908C23.7242 73.0899 28.6072 71.9627 33.3313 74.2767L28.6243 85.6404C31.5222 86.4836 33.9133 85.4932 34.8891 83.1373ZM24.1629 78.6944C23.2329 80.9394 23.692 83.0454 26.3745 84.6436L29.8187 76.3287C27.5947 75.5049 25.1387 76.3385 24.1629 78.6944Z" fill="white"/>
<path d="M43.2641 61.3232L42.2913 60.6732C39.907 65.1055 39.0389 67.7006 40.7601 68.8506C41.9823 69.6673 43.3889 69.2361 44.4556 67.6397C45.8723 65.5195 45.9331 63.1066 43.2641 61.3232ZM46.0678 69.5468C44.2511 72.2657 41.3711 73.336 38.9266 71.7026C35.6589 69.5193 37.3443 65.0529 40.2872 59.5145L40.0129 59.3312C37.6432 57.7478 36.0116 58.4617 34.9116 60.108C33.7115 61.904 33.9262 63.5267 35.5308 64.7431L33.7807 67.3623C31.0455 65.246 30.9327 61.743 32.9827 58.6748C35.2994 55.2076 38.2874 54.3537 42.2867 57.0621C42.611 57.2787 44.8975 58.8787 45.4712 59.262C47.4917 60.612 49.1964 61.5707 50.5603 62.1213L48.8936 64.6157C48.3031 64.3654 47.8956 64.1653 46.9726 63.6568C47.8112 65.3717 47.5345 67.3517 46.0678 69.5468Z" fill="white"/>
<path d="M43.6492 46.8319L40.7218 43.9045L42.9279 41.6983L45.8554 44.6257L48.104 42.3771L49.7798 44.053L47.5312 46.3016L54.0436 52.814C55.2104 53.9807 55.6983 54.0868 56.8014 52.9837L57.7347 52.0503L59.4954 53.811L57.8832 55.4232C55.571 57.7355 54.4891 57.6718 52.1345 55.3172L45.325 48.5077L43.5855 50.2472L41.9097 48.5714L43.6492 46.8319Z" fill="white"/>
<path d="M82.1253 39.1566L81.5346 39.1416L80.1152 31.4817L73.6952 35.8944L73.2668 35.4873L77.2638 28.8311L69.7538 27.0061L69.7689 26.4154L77.4058 24.9406L73.0161 18.576L73.4231 18.1476L80.0794 22.1446L81.9043 14.6346L82.4951 14.6497L83.9469 22.2312L90.3344 17.8968L90.7628 18.3039L86.7428 24.9047L94.2759 26.7851L94.2608 27.3759L86.6563 28.7723L91.0136 35.2152L90.6065 35.6436L84.0057 31.6236L82.1253 39.1566Z" fill="white"/>
</svg>
