<svg width="624" height="299" viewBox="0 0 624 299" fill="none" xmlns="http://www.w3.org/2000/svg">
<path fill-rule="evenodd" clip-rule="evenodd" d="M237.75 42.9155L233.082 38.5128L229.491 34.7075L233.333 30.2222L234.443 29.0915C255.119 5.73418 276.211 -11.5152 325.991 9.4195C365.875 26.1915 382.561 21.3749 384.421 20.838C384.529 20.8068 384.587 20.7901 384.597 20.7929C384.586 20.7938 384.461 20.9466 384.225 21.2344C380.755 25.4751 353.307 59.0212 313.909 67.7488C278.181 75.6635 247.955 53.3555 237.75 42.9155ZM613.495 91.4209H614.588C615.736 91.4209 616.832 91.0489 616.832 90.0676C616.832 89.2302 616.249 88.6116 614.752 88.6116C614.135 88.6116 613.775 88.6648 613.506 88.7046L613.495 88.7062V91.4209ZM616.832 92.0529C617.564 92.3689 617.981 93.0516 618.243 94.1902C618.488 95.5009 618.704 96.0196 618.921 96.3316H617.251C616.984 96.0196 616.788 95.2289 616.516 94.0729C616.329 93.0849 615.736 92.6716 614.545 92.6716H613.495V96.3316H611.883V87.6049C612.775 87.4596 613.721 87.3489 614.899 87.3489C616.364 87.3489 617.111 87.6049 617.624 88.0342C618.139 88.3862 618.488 89.0729 618.488 89.9022C618.488 90.9542 617.732 91.6236 616.832 91.9462V92.0529ZM607.803 91.7262C607.803 95.8702 610.876 99.1249 615.035 99.1249C619.016 99.1889 622.033 95.8702 622.033 91.7796C622.033 87.6902 619.016 84.3889 614.984 84.3889H614.915C610.876 84.3889 607.803 87.6902 607.803 91.7262ZM614.984 82.8142H615.035C620.088 82.8142 624 86.7476 624 91.7262C624 96.8236 620.088 100.754 614.984 100.754C609.887 100.754 605.833 96.8236 605.833 91.7262C605.833 86.7476 609.887 82.8142 614.984 82.8142ZM272.588 159.806C272.588 179.473 286.847 194.304 305.753 194.304C324.617 194.304 339.965 179.069 339.965 160.341C339.965 140.818 325.017 126.648 304.42 126.648C286.571 126.648 272.588 141.213 272.588 159.806ZM313.711 85.9996C331.229 85.9996 346.533 91.7396 359.2 103.057C375.813 117.802 384.596 137.522 384.596 160.081C384.596 180.954 376.564 199.738 361.367 214.404C347.988 227.512 331.681 234.162 312.904 234.162C296.432 234.162 283.725 229.018 274.181 218.457V298.349L250.805 298.346C239.149 297.63 229.813 287.934 229.552 276.27V87.3396H250.161C259.847 87.3462 268.456 93.5396 271.579 102.566C283.233 90.9796 295.988 85.9996 313.711 85.9996ZM435.463 104.22L435.325 104.209L435.499 104.161C435.485 104.181 435.473 104.201 435.463 104.22ZM469.556 125.517C473.776 115.961 479.741 107.3 487.288 99.7729C490.824 96.2382 494.747 92.9342 498.945 89.9556L501.248 88.3222L498.531 87.5596C459.615 76.6289 442.433 93.4662 435.996 103.377C433.12 93.9102 424.293 87.3462 414.312 87.3396H393.733V211.489L393.736 211.584C394.524 222.801 403.595 231.817 414.836 232.556L438.896 232.558V160.601C438.896 144.936 442.248 134.332 448.86 129.086C453.563 125.357 460.009 124.414 468.017 126.285L469.104 126.538L469.556 125.517ZM514.72 160.081C514.72 178.661 529.244 193.777 547.095 193.777C564.937 193.777 579.453 178.661 579.453 160.081C579.453 141.357 564.937 126.125 547.095 126.125C529.244 126.125 514.72 141.357 514.72 160.081ZM546.277 83.6102C567.141 83.6102 585.235 90.7036 600.048 104.694C615.156 119.013 623.819 138.808 623.819 159.004C623.819 180.681 616.451 199.045 601.915 213.588C586.853 228.649 568.316 236.286 546.82 236.286C524.756 236.286 506.808 228.682 491.952 213.038C478.001 198.55 470.624 180.049 470.624 159.542C470.624 139.512 478.493 120.606 492.785 106.306C507.435 91.6702 526.432 83.6102 546.277 83.6102ZM80.1707 192.704C88.632 192.704 96.5893 189.337 102.579 183.222C108.671 177.002 112.027 168.593 112.027 159.542C112.027 139.88 97.6493 125.052 78.5827 125.052C59.8587 125.052 44.6253 140.282 44.6253 159.004C44.6253 178.53 59.5747 192.704 80.1707 192.704ZM134.332 87.3449C145.932 88.3836 154.728 97.8436 154.952 109.43L155.031 109.438V232.558H133.405C123.995 232.464 115.591 226.494 112.353 217.826C100.599 228.689 88.0627 233.353 70.8867 233.353C53.3653 233.353 38.0613 227.609 25.3987 216.28C8.784 201.561 0 181.848 0 159.274C0 138.578 8.03334 119.885 23.2333 105.217C36.796 91.9329 53.0947 85.1929 71.6707 85.1929C88.1427 85.1929 100.864 90.3396 110.433 100.904V87.3396L134.332 87.3449ZM214.343 232.558L214.341 32.5956C214.312 20.2702 204.628 10.3609 192.249 10.0302H169.98V211.197L169.983 211.273C170.625 222.657 179.707 231.805 191.105 232.556L214.343 232.558Z" fill="currentColor"/>
</svg>
