<svg width="600" height="117" viewBox="0 0 600 117" fill="none" xmlns="http://www.w3.org/2000/svg">
<path d="M57.4 28.7H28.7V57.4H0V114.8H86.1V28.7H57.4ZM57.4 57.4V86.1H42.5H28.7V57.4H57.4Z" fill="white"/>
<path d="M0 28.7H28.7V0H0V28.7Z" fill="white"/>
<path d="M177.5 101.334C188.9 101.334 193.1 98.034 193.1 89.534C193.1 80.834 188.7 77.634 176 77.634H158.9V101.334H177.5ZM175.5 64.234C186.5 64.234 190.4 61.334 190.4 53.134C190.4 45.034 186.5 42.134 176 42.134H158.9V64.234H175.5ZM143.5 28.734H177.4C196.9 28.734 205.7 35.734 205.7 51.134C205.7 60.634 202.3 66.534 194.2 69.434V69.734C204.3 72.734 208.5 79.434 208.5 90.734C208.5 107.334 199.6 114.734 180 114.734H143.4L143.5 28.734Z" fill="white"/>
<path d="M222.4 114.734H237.8V28.634H222.4V114.734ZM271.5 42.534H247.3V28.734H311.1V42.534H286.9V114.834H271.5V42.534ZM320.6 28.734H377.3V42.234H336V64.534H370.9V78.034H336V114.734H320.6V28.734ZM386.5 86.134V28.634H401.9V85.734C401.9 98.134 406.3 102.734 418.4 102.734C430.5 102.734 434.9 98.134 434.9 85.734V28.634H449.8V86.134C449.8 107.134 440.4 116.234 418.2 116.234C396 116.334 386.5 107.134 386.5 86.134ZM496.3 68.034C507.2 68.034 511 64.334 511 55.134C511 45.734 507.2 42.234 496.3 42.234H479.1V68.034H496.3ZM463.6 28.734H497.8C518.2 28.734 526.4 36.434 526.4 55.134C526.4 69.434 521.5 77.234 509.9 80.234L529.6 114.734H511.9L493.2 81.434H479V114.734H463.6V28.734ZM570.9 78.234V114.834H555.5V78.534L526.4 28.734H544.1L563.8 62.934L583.4 28.734H600L570.9 78.234Z" fill="white"/>
</svg>
