<svg width="1065" height="222" viewBox="0 0 1065 222" fill="none" xmlns="http://www.w3.org/2000/svg">
<path fill-rule="evenodd" clip-rule="evenodd" d="M436.908 141.785L463.618 189.788L476.132 213.779H413.19L409.084 203.658L388.103 159.558H382.96V213.047H326.306V10.839H385.073C397.817 10.839 423.686 14.8684 438.9 25.7598C455.533 37.7207 465.661 59.0581 465.311 81.4712C464.942 107.245 454.165 129.181 436.908 141.785ZM381.489 103.292L391.477 103.579C403.202 103.579 412.101 97.3151 412.101 82.7253C412.101 67.5561 397.282 64.9462 390.668 64.9972C390.42 64.9972 386.302 64.8953 381.489 64.7362V103.292ZM236.119 56.0345C245.705 56.0345 253.516 64.3416 253.516 74.6092V146.954C253.516 157.215 245.712 165.567 236.119 165.567C226.481 165.567 218.671 157.209 218.671 146.954V74.6092C218.671 64.3416 226.481 56.0345 236.119 56.0345ZM309.062 146.954V74.6092C309.062 33.755 276.349 0.482239 236.119 0.482239C195.888 0.482239 163.15 33.755 163.15 74.6092V146.954C163.15 187.852 195.888 221.125 236.119 221.125C276.349 221.125 309.062 187.859 309.062 146.954ZM129.923 99.4985C128.492 98.0999 126.99 96.7763 125.422 95.5327C133.176 87.0411 138.847 75.2203 138.847 59.5928C138.847 19.2988 88.5658 6.77777 70.2521 6.77777H0.421875V213.461H81.4873C133.774 212.589 147.74 170.557 147.74 145.84C147.74 127.087 141.133 110.104 129.923 99.4985ZM65.5416 58.1988C73.9823 58.1988 81.2772 58.8481 81.2772 65.4874C81.2772 72.1139 74.0014 72.1394 65.5416 72.1394H56.2606V58.2051L65.5416 58.1988ZM74.2751 156.528H56.2097C56.2288 144.541 56.2097 131.498 56.2097 131.498H74.2751C80.2842 131.498 88.464 136.743 88.464 144.7C88.464 152.657 80.2015 156.528 74.2751 156.528ZM521.125 137.768C522.391 157.19 534.798 159.564 544.041 159.659C547.026 159.685 548.414 158.705 549.47 157.648C554.047 153.109 556.141 142.097 556.141 135.693V9.52771H612.572V133.548C611.764 189.208 590.465 213.913 543.436 213.862C487.438 213.824 467.488 175.032 467.488 138.717V123.599H520.208L521.125 137.768ZM723.811 74.6092C723.811 64.3416 715.981 56.0345 706.369 56.0345C696.77 56.0345 688.928 64.3416 688.928 74.6092V146.954C688.928 157.209 696.77 165.567 706.369 165.567C715.981 165.567 723.811 157.215 723.811 146.954V74.6092ZM779.331 74.6092V146.954C779.331 187.859 746.574 221.125 706.363 221.125C666.133 221.125 633.395 187.852 633.395 146.954V74.6092C633.395 33.755 666.133 0.482239 706.363 0.482239C746.574 0.488604 779.331 33.755 779.331 74.6092ZM940.15 8.84021H973.009H988.178V212.182H933.364V126.406L908.793 165.84L896.399 185.663L883.369 166.292L854.864 123.917V213.022H800.107V9.66135H848.085L852.56 16.7589L893.853 82.6043L935.7 15.925L940.15 8.84021ZM1005.45 197.878V9.1012H1064.69V213.022H1005.45V197.878ZM1049.51 197.878V24.2322H1020.58V197.878H1049.51ZM366.326 49.4971H390.522C408.072 49.3507 428.352 61.668 427.378 82.3816C425.889 113.598 408.072 118.347 390.999 118.347H366.326V49.4971ZM341.443 25.9764V197.885H367.822V144.401H397.67L422.802 197.14H450.377L416.213 135.795C437.302 128.831 449.792 106.526 450.186 81.2676C450.473 61.9863 441.09 45.9961 430.09 38.0773C418.365 29.713 395.595 25.9827 385.073 25.9827L341.443 25.9764ZM706.37 15.6323C674.44 15.6323 648.57 42.0747 648.57 74.6155V146.96C648.57 179.571 674.44 205.969 706.37 205.969C738.312 205.969 764.169 179.577 764.169 146.96V74.6155C764.169 42.0747 738.306 15.6323 706.37 15.6323ZM738.917 146.954C738.917 165.579 724.32 180.736 706.37 180.736C688.406 180.736 673.772 165.579 673.772 146.954V74.6092C673.772 56.009 688.406 40.8653 706.37 40.8653C724.32 40.8653 738.917 56.009 738.917 74.6092V146.954ZM178.295 74.6156C178.295 42.0748 204.171 15.6578 236.12 15.6578C268.024 15.6578 293.919 42.0748 293.919 74.6156V146.96C293.919 179.577 268.024 205.969 236.12 205.969C204.171 205.969 178.295 179.571 178.295 146.96V74.6156ZM236.12 180.736C254.083 180.736 268.667 165.579 268.667 146.954V74.6092C268.667 56.0091 254.083 40.8653 236.12 40.8653C218.137 40.8653 203.547 56.0091 203.547 74.6092V146.954C203.547 165.579 218.137 180.736 236.12 180.736ZM40.6913 43.0679H66.4845C81.9401 42.896 96.4154 48.1284 96.4154 63.1575C96.4154 83.4573 79.7185 85.7107 63.5564 86.4173H40.6849L40.6913 43.0679ZM15.5664 21.9341V198.317H81.2399C124.246 197.636 132.597 162.658 132.597 145.84C132.597 129.538 126.544 117.169 119.255 110.256C112.196 103.21 98.0832 95.7747 98.0832 95.7747C110.884 91.8853 123.692 80.1981 123.692 59.5928C123.692 28.9936 77.8089 21.9341 70.2593 21.9341H15.5664ZM40.6913 111.536H73.8749C91.7176 111.351 111.107 125.247 111.107 142.931C111.107 166.439 89.4769 176.859 76.383 176.464H40.6849L40.6913 111.536ZM506.026 138.717C507.127 155.872 516.198 174.498 543.857 174.809C568.052 175.058 571.286 144.312 571.286 135.693V24.6714H597.455V133.548C596.735 183.167 579.822 198.731 543.462 198.731C490.762 198.693 482.658 160.226 482.658 138.717H506.026ZM893.854 111.128L948.534 23.9966H973.01V197.051H948.534V73.4888L895.929 157.826L839.721 74.3227V197.878H815.227V24.805H839.721L893.854 111.128Z" fill="white"/>
</svg>
