<svg width="1008" height="267" viewBox="0 0 1008 267" fill="none" xmlns="http://www.w3.org/2000/svg">
<path d="M369.5 209.003L240.865 209.029L240.831 7.0906C240.831 3.19356 237.641 0.00946045 233.744 0.00946045H206.122C202.225 0.00946045 199.041 3.19356 199.041 7.0906V243.47C199.041 247.372 202.225 250.562 206.122 250.83H369.498C373.4 250.562 376.584 247.244 376.584 243.341V216.121C376.584 212.229 373.338 209.02 369.5 209.003ZM369.528 146.361H303.508V146.335V7.09223C303.508 3.19519 300.324 0.01109 296.422 0.01109H268.799C264.897 0.01109 261.718 3.19519 261.718 7.09223L261.793 181.044C261.793 184.941 264.972 188.13 268.875 188.13H369.528C373.489 188.13 376.619 184.855 376.619 180.969V153.448C376.619 149.546 373.43 146.361 369.528 146.361ZM91.8727 212.731C64.3361 212.731 44.3578 193.256 44.3578 166.411C44.3578 140.718 64.8454 119.802 90.0287 119.802C115.544 119.802 134.788 140.113 134.788 167.033C134.788 192.661 115.936 212.731 91.8727 212.731ZM171.063 0.0389643H143.44C139.538 0.0389643 136.354 3.22307 136.354 7.12011V92.4905L136.324 92.8979C122.579 82.5951 107.259 77.9584 87.2756 77.9584C64.8154 77.9584 44.7351 85.672 29.2381 100.247C10.9054 117.036 0.393555 140.928 0.393555 165.8C0.393555 192.886 11.629 217.486 32.0255 235.079C46.8847 248.024 65.9839 254.875 87.2756 254.875C105.78 254.875 121.872 249.761 136.324 239.238L136.354 239.281V243.773C136.354 247.665 139.538 250.865 143.44 250.865H171.063C174.954 250.865 178.144 247.665 178.144 243.773V7.12032C178.144 3.22328 174.954 0.0389643 171.063 0.0389643Z" fill="white"/>
<path d="M633.386 220.671V216.565C633.386 215.402 633.36 214.196 633.311 212.957H640.285L640.537 219.047C640.976 218.404 641.534 217.68 642.241 216.903C642.954 216.115 643.807 215.396 644.804 214.742C645.811 214.088 646.969 213.536 648.299 213.075C649.628 212.614 651.15 212.378 652.893 212.378C653.702 212.378 654.442 212.438 655.128 212.545C655.803 212.658 656.436 212.824 657.031 213.033L655.407 219.856C654.431 219.481 653.187 219.288 651.67 219.288C650.1 219.288 648.647 219.588 647.323 220.183C645.994 220.778 644.852 221.609 643.86 222.665C642.901 223.721 642.123 224.949 641.55 226.359C640.987 227.774 640.698 229.259 640.698 230.824V250.738H633.386L633.386 220.671ZM619.783 228.552C619.563 225.631 618.534 223.144 616.69 221.08C614.851 219.022 612.252 217.992 608.896 217.992C607.165 217.992 605.605 218.293 604.222 218.888C602.839 219.483 601.659 220.271 600.689 221.241C599.708 222.211 598.952 223.342 598.416 224.618C597.875 225.888 597.575 227.202 597.516 228.552H619.783ZM626.366 245.213C625.931 245.706 625.278 246.328 624.415 247.078C623.546 247.839 622.42 248.568 621.037 249.276C619.66 249.984 618.036 250.589 616.165 251.099C614.299 251.618 612.171 251.881 609.791 251.881C606.864 251.881 604.184 251.383 601.74 250.412C599.306 249.431 597.216 248.059 595.484 246.269C593.753 244.484 592.413 242.34 591.459 239.852C590.52 237.354 590.043 234.594 590.043 231.56C590.043 228.794 590.504 226.215 591.426 223.803C592.348 221.391 593.64 219.306 595.318 217.537C597.001 215.789 598.995 214.39 601.3 213.361C603.605 212.326 606.135 211.817 608.896 211.817C612.144 211.817 614.932 212.439 617.264 213.688C619.59 214.932 621.504 216.577 622.989 218.646C624.484 220.694 625.572 223.058 626.285 225.711C626.988 228.359 627.341 231.125 627.341 233.999H597.516C597.575 235.682 597.939 237.22 598.62 238.63C599.29 240.035 600.201 241.251 601.332 242.291C602.48 243.321 603.777 244.13 605.235 244.72C606.698 245.32 608.242 245.62 609.866 245.62C613.066 245.62 615.688 245.079 617.751 243.991C619.81 242.908 621.3 241.852 622.222 240.823L626.366 245.213ZM549.849 221.157V216.809C549.849 215.587 549.823 214.306 549.774 212.955H556.758L556.999 218.643C557.492 217.989 558.082 217.27 558.784 216.482C559.497 215.705 560.36 214.981 561.379 214.338C562.408 213.684 563.619 213.148 564.997 212.703C566.38 212.269 567.929 212.06 569.671 212.06C574.598 212.06 578.259 213.502 580.634 216.364C583.024 219.238 584.209 223.14 584.209 228.066V250.741H576.897V228.634C576.897 225.118 576.136 222.529 574.624 220.873C573.102 219.222 570.969 218.401 568.208 218.401C566.091 218.401 564.338 218.83 562.917 219.699C561.513 220.562 560.403 221.682 559.562 223.076C558.715 224.448 558.104 226.024 557.734 227.782C557.353 229.54 557.171 231.352 557.171 233.185V250.741H549.848L549.849 221.157ZM522.3 219.046H517.401V212.957H522.3V200.601H529.612V212.957H540.66V219.046H529.612V237.658C529.612 240.686 530.078 242.777 531.027 243.913C531.976 245.044 533.321 245.623 535.047 245.623C536.463 245.623 537.626 245.404 538.548 244.969C539.47 244.535 540.392 243.881 541.303 243.018L544.648 247.489C543.072 248.995 541.458 250.105 539.807 250.775C538.146 251.45 536.184 251.793 533.916 251.793C529.901 251.793 526.964 250.716 525.098 248.545C523.233 246.374 522.3 242.991 522.3 238.387V219.046ZM490.271 220.671V216.565C490.271 215.402 490.245 214.196 490.185 212.957H497.169L497.416 219.047C497.861 218.404 498.418 217.68 499.121 216.903C499.828 216.115 500.681 215.396 501.688 214.742C502.696 214.088 503.854 213.536 505.183 213.075C506.513 212.614 508.035 212.378 509.772 212.378C510.581 212.378 511.326 212.438 512.012 212.545C512.688 212.658 513.32 212.824 513.915 213.033L512.291 219.856C511.31 219.481 510.072 219.288 508.555 219.288C506.984 219.288 505.532 219.588 504.208 220.183C502.873 220.778 501.731 221.609 500.745 222.665C499.78 223.721 499.008 224.949 498.434 226.359C497.872 227.774 497.582 229.259 497.582 230.824V250.738H490.271V220.671ZM475.712 232.857C475.497 232.809 475.079 232.74 474.452 232.654C473.83 232.573 473.106 232.504 472.297 232.455C471.493 232.396 470.619 232.348 469.697 232.289C468.775 232.236 467.88 232.214 467.017 232.214C464.959 232.214 463.291 232.455 462.021 232.943C460.751 233.436 459.748 234.037 459.019 234.766C458.29 235.505 457.792 236.315 457.518 237.205C457.245 238.111 457.111 238.958 457.111 239.767C457.111 241.825 457.818 243.375 459.234 244.441C460.627 245.497 462.578 246.033 465.066 246.033C466.476 246.033 467.816 245.781 469.097 245.288C470.362 244.8 471.493 244.157 472.458 243.342C473.433 242.533 474.221 241.584 474.822 240.496C475.411 239.413 475.712 238.304 475.712 237.173V232.857ZM475.797 246.183C474.382 248.086 472.522 249.491 470.228 250.413C467.923 251.335 465.554 251.796 463.115 251.796C461.544 251.796 460 251.592 458.451 251.185C456.907 250.772 455.503 250.102 454.232 249.159C452.951 248.21 451.922 246.988 451.145 245.497C450.357 244.007 449.96 242.179 449.96 240.008C449.96 235.95 451.386 232.697 454.232 230.263C457.068 227.824 461.169 226.602 466.524 226.602C467.398 226.602 468.32 226.628 469.29 226.682C470.271 226.736 471.193 226.795 472.056 226.843C472.913 226.902 473.68 226.95 474.329 227.004C474.977 227.068 475.438 227.122 475.712 227.18V225.787C475.712 222.983 474.859 220.957 473.16 219.74C471.45 218.518 469.129 217.907 466.208 217.907C463.334 217.907 461.061 218.298 459.389 219.086C457.706 219.874 456.301 220.673 455.16 221.482L451.75 216.524C452.399 215.988 453.187 215.446 454.109 214.91C455.026 214.363 456.108 213.86 457.352 213.399C458.601 212.938 460.005 212.552 461.576 212.262C463.141 211.962 464.959 211.817 467.017 211.817C471.895 211.817 475.728 212.997 478.51 215.35C481.308 217.703 482.696 221.053 482.696 225.385V243.262V247.362C482.696 248.697 482.722 249.817 482.782 250.739H475.958L475.797 246.183ZM415.675 242.531C416.543 243.233 417.787 243.914 419.416 244.557C421.035 245.211 423.067 245.538 425.506 245.538C427.35 245.538 429.044 245.195 430.587 244.525C432.131 243.844 433.455 242.89 434.565 241.679C435.674 240.462 436.527 239.036 437.127 237.412C437.727 235.787 438.022 233.997 438.022 232.046C438.022 230.213 437.813 228.47 437.406 226.841C437.004 225.227 436.355 223.785 435.46 222.536C434.565 221.298 433.418 220.312 432.008 219.583C430.593 218.843 428.867 218.479 426.808 218.479C424.203 218.479 421.984 219.197 420.145 220.628C418.301 222.059 416.999 224.161 416.243 226.927C415.97 227.8 415.809 228.728 415.755 229.736C415.701 230.738 415.674 231.778 415.674 232.855L415.675 242.531ZM408.438 221.159V216.811C408.438 215.584 408.417 214.303 408.363 212.957H415.348L415.594 218.318C415.969 217.83 416.516 217.235 417.218 216.522C417.921 215.82 418.8 215.15 419.861 214.496C420.917 213.842 422.145 213.29 423.554 212.829C424.964 212.368 426.588 212.137 428.432 212.137C431.359 212.137 433.889 212.679 436.034 213.767C438.172 214.85 439.941 216.308 441.351 218.152C442.756 219.99 443.801 222.113 444.482 224.488C445.157 226.878 445.495 229.398 445.495 232.046C445.495 235.46 444.91 238.409 443.747 240.907C442.584 243.405 441.067 245.452 439.196 247.077C437.331 248.706 435.24 249.912 432.946 250.695C430.641 251.477 428.379 251.88 426.154 251.88C423.613 251.88 421.566 251.617 420.022 251.097C418.473 250.588 417.025 250.036 415.675 249.435V266.991H408.438L408.438 221.159ZM430.384 133.394C428.459 132.772 426.497 132.467 424.498 132.467C422.761 132.467 421.11 132.745 419.539 133.314C417.963 133.887 416.57 134.766 415.353 135.956C414.131 137.146 413.155 138.674 412.426 140.55C411.697 142.416 411.333 144.629 411.333 147.176V150.258H404.509V156.353H411.333V188.038H418.644V156.353H429.451V150.258H418.644V147.819C418.644 144.517 419.277 142.18 420.553 140.834C421.823 139.478 423.517 138.797 425.634 138.797C426.873 138.797 428.068 139.076 429.231 139.569L432.967 134.579C432.131 134.091 431.279 133.689 430.384 133.394ZM438.267 150.259H445.579V188.039H438.267V150.259ZM437.779 135.309H445.981V143.515H437.779V135.309ZM673.483 133.851H680.795V188.039H673.483V133.851ZM657.315 170.173C657.09 170.114 656.672 170.05 656.05 169.964C655.423 169.889 654.704 169.814 653.889 169.761C653.085 169.712 652.217 169.653 651.295 169.594C650.373 169.546 649.483 169.519 648.615 169.519C646.551 169.519 644.889 169.76 643.614 170.248C642.338 170.736 641.335 171.347 640.606 172.081C639.877 172.81 639.379 173.625 639.105 174.52C638.832 175.41 638.704 176.263 638.704 177.077C638.704 179.136 639.406 180.696 640.816 181.746C642.225 182.802 644.166 183.333 646.664 183.333C648.068 183.333 649.414 183.086 650.679 182.604C651.955 182.116 653.086 181.462 654.056 180.658C655.037 179.838 655.819 178.895 656.409 177.812C657.015 176.724 657.315 175.609 657.315 174.477L657.315 170.173ZM657.39 183.489C655.985 185.392 654.125 186.802 651.82 187.718C649.521 188.64 647.157 189.101 644.718 189.101C643.136 189.101 641.587 188.903 640.038 188.49C638.494 188.083 637.084 187.413 635.814 186.464C634.544 185.52 633.509 184.293 632.732 182.803C631.944 181.312 631.542 179.49 631.542 177.319C631.542 173.256 632.968 170.007 635.814 167.568C638.666 165.129 642.767 163.918 648.127 163.918C648.99 163.918 649.912 163.944 650.882 163.998C651.863 164.052 652.78 164.1 653.648 164.159C654.517 164.212 655.283 164.266 655.926 164.32C656.57 164.378 657.041 164.427 657.315 164.486V163.097C657.315 160.283 656.452 158.262 654.752 157.051C653.042 155.834 650.721 155.212 647.8 155.212C644.932 155.212 642.649 155.614 640.976 156.397C639.298 157.185 637.894 157.978 636.752 158.793L633.332 153.834C633.991 153.298 634.774 152.752 635.691 152.216C636.618 151.669 637.701 151.16 638.939 150.709C640.188 150.248 641.593 149.868 643.169 149.568C644.739 149.267 646.551 149.123 648.615 149.123C653.487 149.123 657.325 150.307 660.113 152.66C662.9 155.014 664.299 158.353 664.299 162.695V180.567V184.678C664.299 186.002 664.317 187.128 664.38 188.039H657.551L657.39 183.489ZM617.456 150.264H624.768V188.039H617.456V150.264ZM616.963 135.314H625.17V143.526H616.963V135.314ZM611.013 182.846C609.33 184.749 607.261 186.271 604.801 187.435C602.34 188.598 599.472 189.188 596.229 189.188C593.19 189.188 590.44 188.684 587.98 187.681C585.519 186.684 583.429 185.301 581.724 183.532C580.019 181.774 578.701 179.662 577.779 177.202C576.857 174.736 576.396 172.039 576.396 169.118C576.396 166.347 576.884 163.758 577.864 161.313C578.835 158.874 580.202 156.746 581.971 154.929C583.729 153.122 585.809 151.681 588.226 150.625C590.633 149.569 593.297 149.043 596.229 149.043C599.424 149.043 602.233 149.611 604.683 150.753C607.122 151.89 609.196 153.433 610.938 155.385L606.141 160.016C604.999 158.606 603.621 157.491 602.002 156.682C600.378 155.867 598.454 155.46 596.229 155.46C594.278 155.46 592.531 155.835 590.987 156.564C589.438 157.293 588.14 158.29 587.084 159.56C586.028 160.842 585.219 162.3 584.651 163.951C584.077 165.607 583.804 167.328 583.804 169.118C583.804 170.844 584.077 172.543 584.651 174.194C585.219 175.845 586.028 177.309 587.084 178.574C588.14 179.85 589.438 180.868 590.987 181.624C592.531 182.385 594.278 182.76 596.229 182.76C598.454 182.76 600.432 182.342 602.206 181.506C603.964 180.67 605.412 179.539 606.548 178.129L611.013 182.846ZM536.469 158.464V154.117C536.469 152.9 536.448 151.619 536.394 150.263H543.384L543.62 155.95C544.113 155.296 544.713 154.578 545.405 153.801C546.112 153.013 546.986 152.289 548.015 151.646C549.045 150.992 550.24 150.45 551.623 150.021C553.006 149.587 554.555 149.367 556.297 149.367C561.224 149.367 564.874 150.799 567.259 153.672C569.65 156.545 570.835 160.447 570.835 165.374V188.038H563.523V165.942C563.523 162.425 562.762 159.836 561.245 158.185C559.728 156.529 557.594 155.709 554.834 155.709C552.722 155.709 550.958 156.138 549.554 157.006C548.144 157.869 547.024 158.989 546.177 160.383C545.341 161.755 544.735 163.321 544.36 165.09C543.974 166.848 543.786 168.66 543.786 170.493V188.038H536.469V158.464ZM521.678 170.173C521.459 170.114 521.046 170.05 520.424 169.964C519.797 169.889 519.084 169.814 518.269 169.761C517.46 169.712 516.586 169.653 515.664 169.594C514.742 169.546 513.847 169.519 512.984 169.519C510.925 169.519 509.258 169.76 507.993 170.248C506.712 170.736 505.715 171.347 504.981 172.081C504.252 172.81 503.748 173.625 503.48 174.52C503.207 175.41 503.067 176.263 503.067 177.077C503.067 179.136 503.78 180.696 505.179 181.746C506.594 182.802 508.545 183.333 511.032 183.333C512.442 183.333 513.777 183.086 515.053 182.604C516.328 182.116 517.46 181.462 518.43 180.658C519.411 179.838 520.199 178.895 520.783 177.812C521.378 176.724 521.678 175.609 521.678 174.477L521.678 170.173ZM521.764 183.489C520.36 185.392 518.494 186.802 516.195 187.718C513.89 188.64 511.52 189.101 509.081 189.101C507.511 189.101 505.956 188.903 504.407 188.49C502.869 188.083 501.459 187.413 500.188 186.464C498.918 185.52 497.883 184.293 497.095 182.803C496.318 181.312 495.922 179.49 495.922 177.319C495.922 173.256 497.337 170.007 500.188 167.568C503.029 165.129 507.13 163.918 512.501 163.918C513.364 163.918 514.286 163.944 515.257 163.998C516.238 164.052 517.16 164.1 518.028 164.159C518.891 164.212 519.647 164.266 520.295 164.32C520.949 164.378 521.405 164.427 521.678 164.486V163.097C521.678 160.283 520.826 158.262 519.127 157.051C517.417 155.823 515.096 155.212 512.169 155.212C509.301 155.212 507.028 155.614 505.351 156.397C503.673 157.185 502.263 157.978 501.116 158.793L497.707 153.834C498.355 153.298 499.138 152.752 500.07 152.216C500.982 151.669 502.07 151.16 503.314 150.709C504.557 150.248 505.972 149.868 507.538 149.568C509.108 149.267 510.925 149.123 512.984 149.123C517.862 149.123 521.695 150.307 524.487 152.66C527.275 155.014 528.674 158.353 528.674 162.695V180.567V184.678C528.674 186.002 528.7 187.128 528.749 188.039H521.925L521.764 183.489ZM455.162 158.464V154.117C455.162 152.9 455.127 151.619 455.076 150.263H462.071L462.313 155.95C462.806 155.296 463.401 154.578 464.114 153.801C464.822 153.013 465.701 152.289 466.719 151.646C467.748 150.986 468.954 150.45 470.337 150.021C471.72 149.587 473.275 149.367 475.006 149.367C479.943 149.367 483.594 150.799 485.985 153.672C488.365 156.545 489.56 160.447 489.56 165.374V188.038H482.238V165.942C482.238 162.425 481.482 159.836 479.97 158.185C478.442 156.529 476.309 155.709 473.554 155.709C471.431 155.709 469.673 156.138 468.268 157.006C466.853 157.869 465.727 158.989 464.902 160.383C464.05 161.755 463.433 163.321 463.053 165.09C462.672 166.848 462.484 168.66 462.484 170.493V188.038H455.162L455.162 158.464ZM980.215 178.373C981.571 179.73 983.195 180.812 985.093 181.622C986.991 182.437 989.178 182.844 991.676 182.844C994.109 182.844 996.135 182.453 997.77 181.665C999.395 180.887 1000.21 179.649 1000.21 177.961C1000.21 177.098 1000.03 176.363 999.679 175.725C999.32 175.109 998.73 174.551 997.888 174.069C997.052 173.581 995.937 173.136 994.565 172.729C993.176 172.327 991.456 171.877 989.397 171.378C987.939 171.062 986.487 170.628 985.055 170.091C983.613 169.545 982.332 168.832 981.196 167.937C980.054 167.041 979.127 165.953 978.43 164.677C977.717 163.407 977.374 161.879 977.374 160.1C977.374 158.245 977.786 156.637 978.634 155.259C979.47 153.876 980.601 152.708 982.005 151.764C983.404 150.815 984.996 150.097 986.755 149.609C988.524 149.116 990.341 148.875 992.244 148.875C995.444 148.875 998.189 149.304 1000.49 150.14C1002.8 150.976 1004.8 152.155 1006.55 153.672L1002.56 158.706C1001.42 157.687 999.995 156.814 998.301 156.111C996.586 155.399 994.602 155.055 992.324 155.055C989.987 155.055 988.122 155.431 986.717 156.192C985.307 156.948 984.6 158.197 984.6 159.928C984.6 161.552 985.533 162.764 987.409 163.541C989.274 164.334 991.724 165.079 994.763 165.776C996.548 166.211 998.215 166.714 999.759 167.283C1001.3 167.856 1002.66 168.58 1003.83 169.48C1004.99 170.365 1005.9 171.464 1006.58 172.772C1007.26 174.069 1007.61 175.634 1007.61 177.484C1007.61 179.376 1007.17 181.043 1006.3 182.479C1005.44 183.911 1004.27 185.117 1002.81 186.098C1001.35 187.068 999.663 187.802 997.77 188.29C995.867 188.778 993.889 189.019 991.831 189.019C984.686 189.019 979.325 187.095 975.744 183.246L980.215 178.373ZM935.916 158.305V153.958C935.916 152.736 935.891 151.455 935.831 150.099H942.815L943.062 155.786C943.555 155.132 944.15 154.408 944.852 153.631C945.554 152.843 946.417 152.125 947.457 151.482C948.481 150.828 949.687 150.292 951.065 149.852C952.448 149.418 954.008 149.203 955.739 149.203C960.671 149.203 964.327 150.64 966.717 153.513C969.092 156.386 970.293 160.283 970.293 165.215V187.879H962.97V165.778C962.97 162.261 962.215 159.678 960.698 158.021C959.175 156.37 957.042 155.55 954.276 155.55C952.164 155.55 950.406 155.979 949.001 156.842C947.586 157.71 946.46 158.825 945.624 160.214C944.782 161.597 944.177 163.162 943.796 164.931C943.421 166.689 943.228 168.49 943.228 170.334V187.879H935.916V158.305ZM909.95 182.679C911.901 182.679 913.66 182.293 915.236 181.505C916.812 180.717 918.13 179.688 919.213 178.417C920.301 177.142 921.132 175.678 921.695 174.027C922.263 172.376 922.547 170.682 922.547 168.951C922.547 167.268 922.263 165.601 921.695 163.95C921.132 162.298 920.285 160.824 919.181 159.522C918.066 158.225 916.737 157.185 915.193 156.397C913.654 155.609 911.901 155.217 909.95 155.217C907.999 155.217 906.241 155.609 904.676 156.397C903.1 157.185 901.776 158.214 900.687 159.479C899.605 160.76 898.779 162.218 898.216 163.874C897.648 165.525 897.364 167.219 897.364 168.951C897.364 170.682 897.648 172.371 898.216 173.984C898.779 175.608 899.615 177.077 900.73 178.374C901.845 179.672 903.164 180.717 904.718 181.505C906.252 182.293 907.999 182.679 909.95 182.679ZM909.95 189.02C907.029 189.02 904.349 188.49 901.899 187.439C899.476 186.383 897.375 184.93 895.616 183.092C893.842 181.248 892.47 179.12 891.467 176.718C890.46 174.306 889.956 171.706 889.956 168.951C889.956 166.185 890.46 163.601 891.467 161.189C892.47 158.782 893.842 156.654 895.616 154.805C897.375 152.971 899.476 151.524 901.899 150.468C904.349 149.412 907.029 148.876 909.95 148.876C912.823 148.876 915.477 149.412 917.916 150.468C920.355 151.524 922.462 152.971 924.257 154.805C926.042 156.654 927.431 158.782 928.444 161.189C929.441 163.601 929.945 166.185 929.945 168.951C929.945 171.706 929.441 174.306 928.444 176.718C927.431 179.12 926.042 181.248 924.257 183.092C922.462 184.93 920.355 186.383 917.916 187.439C915.477 188.49 912.823 189.02 909.95 189.02ZM876.071 150.098H883.382V187.879H876.071V150.098ZM875.577 135.142H883.784V143.355H875.577V135.142ZM848.61 156.195H841.78V150.094H848.61V137.749H855.921V150.094H866.969V156.195H855.921V174.806C855.921 177.829 856.388 179.914 857.347 181.062C858.291 182.193 859.631 182.761 861.357 182.761C862.772 182.761 863.935 182.552 864.857 182.118C865.774 181.683 866.696 181.029 867.618 180.166L870.947 184.637C869.376 186.149 867.768 187.242 866.117 187.923C864.466 188.598 862.504 188.941 860.226 188.941C856.211 188.941 853.279 187.853 851.413 185.688C849.542 183.517 848.61 180.134 848.61 175.524V156.195ZM801.888 150.097H809.2V172.284C809.2 175.854 809.929 178.443 811.397 180.04C812.861 181.638 814.973 182.437 817.733 182.437C819.845 182.437 821.598 182.008 822.976 181.139C824.348 180.276 825.485 179.145 826.342 177.762C827.216 176.39 827.822 174.814 828.181 173.056C828.524 171.287 828.706 169.496 828.706 167.642V150.097H836.018V179.671V184.018C836.018 185.24 836.044 186.532 836.104 187.877H829.119L828.867 182.276C828.38 182.919 827.785 183.627 827.082 184.388C826.38 185.149 825.506 185.835 824.477 186.462C823.448 187.084 822.258 187.609 820.902 188.038C819.546 188.483 818.002 188.703 816.27 188.703C811.344 188.703 807.71 187.266 805.378 184.431C803.057 181.579 801.888 177.703 801.888 172.772L801.888 150.097ZM786.851 133.684H794.163V187.884H786.851V133.684ZM760.604 182.679C762.545 182.679 764.313 182.293 765.884 181.505C767.455 180.717 768.779 179.688 769.867 178.417C770.95 177.142 771.781 175.678 772.343 174.027C772.906 172.376 773.196 170.682 773.196 168.951C773.196 167.268 772.906 165.601 772.343 163.95C771.781 162.298 770.928 160.824 769.824 159.522C768.714 158.225 767.39 157.185 765.847 156.397C764.297 155.609 762.545 155.217 760.604 155.217C758.653 155.217 756.895 155.609 755.319 156.397C753.743 157.185 752.424 158.214 751.341 159.479C750.253 160.76 749.433 162.218 748.865 163.874C748.291 165.525 748.007 167.219 748.007 168.951C748.007 170.682 748.291 172.371 748.865 173.984C749.433 175.608 750.269 177.077 751.384 178.374C752.488 179.672 753.818 180.717 755.367 181.505C756.905 182.293 758.653 182.679 760.604 182.679ZM760.604 189.02C757.677 189.02 754.992 188.49 752.553 187.439C750.119 186.383 748.023 184.93 746.254 183.092C744.496 181.248 743.118 179.12 742.111 176.718C741.113 174.306 740.61 171.706 740.61 168.951C740.61 166.185 741.113 163.601 742.111 161.189C743.118 158.782 744.496 156.654 746.254 154.805C748.023 152.971 750.119 151.524 752.553 150.468C754.992 149.412 757.677 148.876 760.604 148.876C763.477 148.876 766.125 149.412 768.564 150.468C771.009 151.524 773.115 152.971 774.911 154.805C776.696 156.654 778.084 158.782 779.092 161.189C780.095 163.601 780.588 166.185 780.588 168.951C780.588 171.706 780.095 174.306 779.092 176.718C778.084 179.12 776.696 181.248 774.911 183.092C773.115 184.93 771.009 186.383 768.564 187.439C766.125 188.49 763.477 189.02 760.604 189.02ZM708.526 178.373C709.872 179.73 711.496 180.812 713.388 181.622C715.291 182.437 717.478 182.844 719.971 182.844C722.421 182.844 724.447 182.453 726.06 181.665C727.695 180.887 728.51 179.649 728.51 177.961C728.51 177.098 728.333 176.363 727.985 175.725C727.631 175.109 727.036 174.551 726.2 174.069C725.347 173.581 724.248 173.136 722.86 172.729C721.482 172.327 719.756 171.877 717.703 171.378C716.235 171.062 714.787 170.628 713.361 170.091C711.919 169.545 710.638 168.832 709.486 167.937C708.355 167.041 707.438 165.953 706.736 164.677C706.023 163.407 705.675 161.879 705.675 160.1C705.675 158.245 706.093 156.637 706.94 155.259C707.77 153.876 708.902 152.708 710.311 151.764C711.716 150.815 713.297 150.097 715.055 149.609C716.824 149.116 718.652 148.875 720.544 148.875C723.739 148.875 726.489 149.304 728.794 150.14C731.094 150.976 733.109 152.155 734.846 153.672L730.869 158.706C729.732 157.687 728.301 156.814 726.596 156.111C724.892 155.399 722.903 155.055 720.63 155.055C718.293 155.055 716.428 155.431 715.023 156.192C713.608 156.948 712.911 158.197 712.911 159.928C712.911 161.552 713.844 162.764 715.709 163.541C717.58 164.334 720.03 165.079 723.064 165.776C724.854 166.211 726.516 166.714 728.065 167.283C729.609 167.856 730.965 168.58 732.123 169.48C733.291 170.365 734.213 171.464 734.889 172.772C735.559 174.069 735.902 175.634 735.902 177.484C735.902 179.376 735.468 181.043 734.599 182.479C733.731 183.911 732.573 185.117 731.115 186.098C729.646 187.068 727.963 187.802 726.06 188.29C724.168 188.778 722.195 189.019 720.142 189.019C712.991 189.019 707.62 187.095 704.056 183.246L708.526 178.373Z" fill="white"/>
</svg>
