<svg width="601" height="230" viewBox="0 0 601 230" fill="none" xmlns="http://www.w3.org/2000/svg">
<path d="M301.6 96.9C298.3 95.1 294.1 94.5 289.1 94.5C271.4 94.5 263.8 109.3 263.8 132.3C263.8 154.8 271.1 167.5 287.8 167.5C293.3 167.5 298.2 166 301.6 163.9V96.9ZM281.8 211.6C270.3 211.6 260.5 209.2 254.7 205.6L259.1 196C264 198.8 271.6 201.2 279.4 201.2C295.5 201.2 301.6 191.5 301.6 178.3V172.1C297.7 174.4 291.7 175.8 284.1 175.8C263.2 175.8 249.7 159.3 249.7 132.6C249.7 104.9 263.2 85.7 289.5 85.7C301.7 85.7 310.4 88.6 315.5 91.9V176.6C315.4 198.8 302.8 211.6 281.8 211.6ZM366.2 96.9C359.1 94.8 350.9 95.4 346.2 98.5V174.9H332V92.1C340.6 87.7 348.9 85.5 369.7 86L366.2 96.9ZM408.6 94.9C391.9 94.9 388.6 113.6 388.6 131.3C388.6 149 392.2 166.7 408.6 166.7C425.3 166.7 428.4 148.8 428.4 131.3C428.4 113.7 425.3 94.9 408.6 94.9ZM408.6 176.6C384.7 176.6 374.4 156.9 374.4 131.3C374.4 105.2 384.9 85.9 408.5 85.9C432.5 85.9 442.7 105.2 442.7 131.3C442.7 156.9 432.3 176.6 408.6 176.6ZM486.8 176.7C464.9 176.7 455.8 165.7 455.8 148.1V87.4H470.1V148.6C470.1 158.8 475.6 166.6 487.6 166.6C494.4 166.6 499.3 165.5 503.3 163V87.4H517.6V169.7C511.2 173.5 500.9 176.7 486.8 176.7ZM560.8 94.4C555.4 94.4 551.7 95.4 548.3 96.8V165.5C551.1 166.6 554.6 167.5 559 167.5C576.7 167.5 585.8 153.7 585.8 130.5C585.8 108.2 579.3 94.4 560.8 94.4ZM562 176.2C557 176.2 551.6 175.2 548.3 174.1V209.8H534.2V92C540 88.6 549 85.8 561.5 85.8C586.1 85.8 600.1 103 600.1 129.8C600.1 158.8 585 176.2 562 176.2ZM135.6 175.1H122.8L93.7996 87.6H109L127.3 150.2C129.1 156 129.6 160.9 129.6 160.9H129.9C129.9 160.9 130.2 156.2 132 150.2L150.7 87.6H164L135.6 175.1ZM77.3996 70.7L76.6996 70.6L75.9996 70.7C73.5996 70.7 71.3996 69.7 69.8996 68.2C66.6996 65.9 64.5996 62.2 64.5996 57.9C64.5996 50.8 70.2996 45.1 77.3996 45.1C84.3996 45.1 90.0996 50.8 90.0996 57.9C90.1996 65 84.4996 70.7 77.3996 70.7ZM83.1996 175.1H68.8996V87.6H83.1996V175.1ZM202.3 95.9C186.4 95.9 180.2 110.4 180.2 130.8C180.2 151.7 187.7 166.2 201.8 166.2C213.5 166.2 215.7 162.6 218.9 160.3C224.9 146.4 228.3 131.1 228.3 115C228.3 52 177.2 0.899994 114.2 0.899994C51.1996 0.899994 0.0996094 52 0.0996094 115C0.0996094 178 51.1996 229.1 114.2 229.1C155.2 229.1 191.2 207.4 211.3 174.9C208 176 204 176.7 199.1 176.7C179.9 176.7 165.8 159.5 165.8 131.3C165.8 102.6 179.9 86 199.4 86C210.1 86 216 89.4 218.7 91.8L215.3 100.1C212.7 98.1 208.8 95.9 202.3 95.9Z" fill="white"/>
</svg>
