<svg width="310" height="311" viewBox="0 0 310 311" fill="none" xmlns="http://www.w3.org/2000/svg">
<g clip-path="url(#clip0_115_4)">
<path fill-rule="evenodd" clip-rule="evenodd" d="M15.5604 12.2596C13.4956 12.9729 12.1054 14.9144 12.0938 17.1033C12.0883 18.1446 27.8012 217.011 27.9446 217.715L28.0377 218.169H53.745H79.4523V115.022V11.875L48.0445 11.8812C18.0649 11.8874 16.587 11.9045 15.5604 12.2596ZM230.694 115.022V218.169H256.378H282.062L282.171 217.312C282.818 212.229 298.073 16.4861 297.877 15.7867C297.375 13.9987 295.779 12.4736 294.013 12.0952C293.296 11.9409 283.594 11.875 261.841 11.875H230.694V115.022Z" fill="white"/>
<path fill-rule="evenodd" clip-rule="evenodd" d="M12.3439 0.208003C5.43456 1.20125 0 7.44762 0 14.3941C0 17.2429 22.3694 298.012 22.7005 299.317C24.1512 305.038 29.3035 309.444 35.3506 310.133C36.6292 310.279 74.2214 310.326 156.385 310.285L275.564 310.225L277.07 309.758C282.227 308.16 286.106 304.249 287.345 299.393C288.011 296.782 310.296 14.7477 309.997 12.6984C309.127 6.73196 305.096 2.16969 299.157 0.432085C297.796 0.0335455 15.0925 -0.187435 12.3439 0.208003ZM298.451 4.28101C302.831 5.75111 305.819 9.34572 306.233 13.6436C306.395 15.3362 284.045 296.75 283.622 298.327C282.638 301.996 279.802 304.848 275.967 306.023C274.347 306.52 36.4788 306.614 34.483 306.119C30.8116 305.208 27.6799 302.32 26.6106 298.858C26.223 297.603 3.83342 18.0267 3.83187 14.4244C3.83032 9.59927 7.53736 5.1944 12.5028 4.12284C14.832 3.61963 296.946 3.77625 298.451 4.28101ZM149.528 14.4275C143.029 15.1137 134.167 17.5429 127.257 20.5312C123.378 22.2083 122.607 22.803 122.607 24.1149C122.606 25.8153 119.418 29.5704 116.96 30.7645C114.531 31.9446 113.213 32.2672 108.731 32.7766C108.253 32.8309 107.814 33.0014 107.755 33.155C107.405 34.0691 111.058 38.3654 112.877 39.1796C114.594 39.9472 113.478 40.3271 108.995 40.4993C104.48 40.6722 103.168 41.2987 102.011 43.8372C101.456 45.0553 101.533 45.3856 102.841 47.3776C105.814 51.9042 105.737 54.504 102.554 57.0363C98.5548 60.2192 98.5191 60.7627 101.521 72.9818C102.678 77.6921 103.759 81.9218 103.923 82.3808C104.235 83.25 104.094 83.664 103.487 83.664C102.897 83.664 101.667 84.5456 101.274 85.2512C99.6062 88.2426 100.088 92.8506 103.122 102.923C105.269 110.051 105.528 111.007 106.182 114.215C107.818 122.256 109.782 125.095 113.665 125.038C115.221 125.014 115.276 125.084 115.441 127.323C115.741 131.369 116.739 135.3 118.361 138.818C118.886 139.954 119.179 140.966 119.356 142.245C120.141 147.94 123.669 154.287 128.993 159.585C131.255 161.837 133.051 163.295 138.79 167.543C141.091 169.245 142.974 170.703 142.974 170.781C142.974 170.86 140.91 170.975 138.387 171.038C133.916 171.15 131.985 171.404 131.435 171.954C130.819 172.57 130.603 182.575 131.181 183.693C131.863 185.012 134.02 185.126 147.663 184.568C151.171 184.425 150.98 184.149 149.635 187.407C149.082 188.744 147.688 192.241 146.535 195.181C143.917 201.852 141.448 207.45 138.899 212.496C136.414 217.41 136.342 216.878 139.591 217.552C140.226 217.684 141.661 218.24 142.78 218.788C145.677 220.204 145.578 220.234 146.89 217.514C149.214 212.694 153.396 202.123 154.428 198.457C154.716 197.432 155.026 196.592 155.114 196.592C155.325 196.592 155.3 215.167 155.084 219.077C154.854 223.234 154.961 223.357 158.139 222.601C159.302 222.325 160.741 222.145 161.927 222.128C164.201 222.096 164.199 222.098 164.539 219.383C165.467 211.985 163.798 194.451 161.419 186.581C160.767 184.426 160.773 184.368 161.678 184.218C163.145 183.977 169.336 184.085 173.131 184.419C177.376 184.794 177.926 184.743 178.333 183.935C178.808 182.995 178.954 173.27 178.507 172.375C177.832 171.023 174.829 170.411 170.047 170.649C167.163 170.792 167.134 170.76 169.047 169.583C175.36 165.696 184.96 157.133 187.611 153.023C191.677 146.721 195.198 135.218 195.202 128.224C195.204 125.187 195.27 125.088 197.364 124.962C201.4 124.722 202.645 122.65 205.986 110.617C209.491 97.9921 210.388 93.84 210.411 90.1174C210.434 86.4174 210.076 85.7234 207.25 83.9928C206.578 83.5818 206.517 83.923 208.242 78.4629C210.063 72.6926 210.524 70.8929 210.665 69.0041L210.789 67.3503L209.787 66.3826C208.011 64.6683 207.766 64.1325 207.406 61.1799C204.421 36.7062 187.704 18.8106 164.149 14.8671C161.707 14.4593 151.997 14.167 149.528 14.4275ZM158.531 19.1425C168.101 20.1063 177.169 23.7932 185.908 30.276C194.561 36.6945 199.291 45.2523 201.092 57.7512C201.828 62.8524 201.338 74.4092 200.338 75.5599C199.634 76.3701 199.423 76.0057 198.253 71.9583C196.031 64.2697 194.264 59.8106 191.852 55.8058C190.355 53.3192 190.125 53.8162 190.093 59.6191L190.067 64.4496L190.669 65.2862C193.254 68.8816 193.889 70.2362 194.933 74.3751C195.8 77.8123 196.042 80.5626 195.498 80.7719C195.294 80.8494 193.851 80.7161 192.291 80.4742C188.863 79.943 184.233 79.8314 174.937 80.0562C166.258 80.2664 164.681 80.6719 160.518 83.7656C158.209 85.4823 157.981 85.5738 156.7 85.2993C155.257 84.9899 153.633 85.0201 152.234 85.383C150.76 85.7645 150.324 85.6087 148.318 83.985C143.894 80.4021 142.577 80.1454 128.581 80.14L117.112 80.1353L117.213 78.5218C117.39 75.708 118.263 74.4022 120.729 73.264C122.538 72.4289 122.393 72.7414 123.495 67.2727C125.669 56.4773 128.913 50.5822 134.842 46.6464C139.224 43.7372 147.407 43.9931 153.814 47.2403C155.274 47.98 155.371 47.9529 157.345 46.2471C159.701 44.2117 159.701 44.2156 157.04 41.615C147.777 32.5634 137.177 30.5838 124.492 35.5377C122.956 36.137 121.672 36.555 121.637 36.465C121.057 34.9585 129.12 29.3588 134.557 27.4917C138.206 26.2387 137.901 24.9911 133.944 24.9849C132.416 24.9818 132.15 24.6515 132.978 23.787C135.674 20.9732 150.301 18.3144 158.531 19.1425ZM134.875 40.4248C135.806 40.8133 135.648 41.0234 133.835 41.8112C128.244 44.242 124.971 47.3605 121.754 53.3254C120.889 54.9273 120.429 55.5244 119.285 56.523C116.415 59.0298 116.077 59.5307 114.981 62.8935C113.468 67.5356 112.691 71.8404 112.345 77.4905C112.147 80.7386 111.969 81.1666 110.519 81.9008C109.126 82.6064 109.284 82.8561 108.003 77.9069C104.421 64.0588 104.42 64.0743 109.487 56.7735C110.737 54.9715 110.519 52.5764 108.759 48.8174C107.709 46.5743 107.587 46.6836 111.717 46.1587C115.559 45.671 120.475 44.1908 124.154 42.4136C128.479 40.3256 132.743 39.5339 134.875 40.4248ZM118.608 82.7879C119.715 83.7904 118.489 85.1109 116.953 84.5689C116.486 84.4045 115.845 84.2696 115.531 84.2696C114.71 84.2696 114.379 83.5989 114.988 83.1724C115.235 82.9995 115.712 82.8561 116.048 82.8545C116.384 82.853 116.795 82.7638 116.96 82.6561C117.425 82.356 118.2 82.418 118.608 82.7879ZM193.73 82.8414C195.186 83.1003 195.664 84.2696 194.314 84.2696C194.055 84.2696 193.457 84.4053 192.985 84.572C191.868 84.9659 191.653 84.9542 191.17 84.4712C190.286 83.5873 190.953 82.3172 192.176 82.5545C192.566 82.6297 193.265 82.7592 193.73 82.8414ZM127.612 85.428C127.662 85.7816 127.474 86.0025 126.749 86.436C126.239 86.7415 124.815 87.6494 123.585 88.4535C121.211 90.0065 120.643 90.1694 119.964 89.4917C119.242 88.7683 119.996 86.888 121.439 85.818C122.726 84.8643 127.489 84.5627 127.612 85.428ZM185.213 85.0946C187.63 85.7032 188.107 89.5126 185.767 89.5126C184.294 89.5126 179.611 86.0607 179.936 85.2148C180.093 84.8038 183.73 84.7216 185.213 85.0946ZM138.411 85.87C139.442 86.3693 140.486 87.6657 140.282 88.1953C140.184 88.4519 139.832 88.4822 138.091 88.3853C135.596 88.2457 134.051 88.5899 130.971 89.9717C128.555 91.0548 127.261 91.372 126.602 91.0432C125.524 90.5059 125.979 89.9406 128.758 88.3612C129.645 87.8564 130.769 87.2144 131.256 86.933C134.002 85.3474 136.549 84.9682 138.411 85.87ZM177.012 86.4662C177.473 86.7004 178.554 87.5323 179.417 88.3139C180.28 89.0955 181.598 90.1438 182.343 90.6447C183.921 91.7023 184.007 91.8031 183.608 92.1342C182.879 92.7389 180.603 91.8868 178.386 90.181C176.296 88.5713 174.863 88.2689 171.816 88.7946C168.833 89.3095 168.568 88.3434 171.307 86.9392C173.557 85.7854 175.381 85.6342 177.012 86.4662ZM196.845 86.9415C197.32 87.8247 197.388 89.0567 197.196 93.3282C196.947 98.8613 197.213 99.2086 199.755 96.667C200.828 95.5946 200.972 95.0821 200.71 93.2538C200.287 90.3012 201.637 87.7983 203.401 88.2651C206.309 89.0335 206.333 91.382 203.534 101.41C202.931 103.573 202.129 106.623 201.752 108.189C199.584 117.199 198.076 119.595 195.3 118.435C194.082 117.926 193.758 118.138 192.428 120.314C190.924 122.774 190.829 123.101 190.689 126.315C190.01 141.863 182.391 154.741 171.305 159.075C168.427 160.201 167.674 160.187 166.387 158.983C165.507 158.16 164.792 157.833 164.729 158.227C164.715 158.31 164.688 159.381 164.669 160.607C164.627 163.245 164.446 163.691 162.337 166.343C160.39 168.792 159.886 169.912 159.413 172.845C158.826 176.479 150.203 167.91 147.796 161.302C147.103 159.399 147.147 156.64 147.911 154.143C149.335 149.488 149.621 147.239 149.171 144.23C149.045 143.391 149.079 143.127 149.345 142.86C149.911 142.294 150.392 142.75 151.909 145.292C152.887 146.93 153.504 145.411 153.162 142.21C152.983 140.539 152.262 139.714 150.549 139.215C146.98 138.178 149.458 136.117 154.066 136.291C161.757 136.58 163.42 136.431 167.737 135.065C170.806 134.094 171.057 134.093 172.551 135.059C174.066 136.039 174.174 136.326 174.303 139.725C174.524 145.566 176.625 145.25 177.864 139.191C178.467 136.241 178.829 135.314 179.779 134.29C182.143 131.737 183.169 128.021 182.815 123.295C182.599 120.416 182.114 119.652 179.803 118.554C178.342 117.861 176.506 116.022 174.725 113.465C171.913 109.43 170.611 108.201 168.015 107.133C165.633 106.154 164.922 106.596 165.47 108.712C166.231 111.649 165.896 112.305 162.875 113.778C158.316 116.002 154.491 115.86 150.839 113.334C147.229 110.837 146.758 107.703 149.214 102.519C150.322 100.18 150.498 99.542 150.939 96.2676C151.737 90.3431 152.327 89.1087 154.364 89.1087C156.096 89.1087 156.856 89.8166 157.394 91.9326C158.436 96.0265 160.107 97.6664 161.907 96.3622C163.15 95.462 163.265 95.0658 162.664 93.7671C161.844 91.9992 162.279 91.7217 164.271 92.742C166.879 94.078 171.532 94.6138 174.815 93.9555C178.39 93.2398 179.854 93.5321 180.667 95.1247C181.211 96.1909 181.417 96.3173 183.011 96.5669C185.534 96.9616 185.753 97.188 185.207 98.831C184.537 100.849 182.45 102.295 179.181 103.01C177.086 103.468 177.055 103.489 177.055 104.402C177.055 106.131 178.591 106.516 182.009 105.641C186.697 104.442 188.706 101.433 190.353 93.1421C191.398 87.8797 191.442 87.8022 193.793 87.0175C195.752 86.3631 196.523 86.3437 196.845 86.9415ZM109.639 88.8985C110.929 89.6848 111.437 91.3991 110.853 92.9909C110.175 94.8371 110.217 95.3504 111.714 103.527C112.922 110.133 112.637 111.835 110.618 110.063C109.729 109.282 109.387 108.656 109.013 107.117C108.856 106.474 108.034 103.452 107.185 100.402C105.451 94.1672 105.207 92.5242 105.743 90.6796C106.326 88.6776 108.013 87.9061 109.639 88.8985ZM136.345 93.5438C139.014 94.0105 140.018 94.0377 142.308 93.7066C144.486 93.3918 144.755 93.5918 143.711 94.7471C142.832 95.7202 142.834 95.704 143.501 96.9794C145.022 99.8886 141.571 102.626 135.741 103.134C133.932 103.292 133.698 103.462 133.698 104.623C133.698 105.802 134.249 106.074 136.583 106.047C139.232 106.017 139.143 106.009 139.143 106.282C139.143 106.412 138.875 106.934 138.548 107.444C138.221 107.954 137.812 108.912 137.64 109.572C137.242 111.101 137.146 111.188 134.838 112.096C133.781 112.512 132.343 113.26 131.643 113.758C125.76 117.945 122.924 116.689 120.288 108.726C118.454 103.19 118.864 102.319 122.486 104.056C124.913 105.221 125.878 105.308 126.425 104.409C127.282 103.005 127.062 102.519 125.162 101.616C121.83 100.034 119.635 96.5313 121.292 95.445C121.841 95.086 122.255 95.2193 123.284 96.0885C125.189 97.7005 125.959 97.73 127.318 96.2436C129.957 93.3585 131.924 92.77 136.345 93.5438ZM144.407 106.428C144.823 106.765 144.848 106.868 144.632 107.343C144.195 108.303 144.119 109.904 144.464 110.888C145.303 113.275 144.207 114.3 142.495 112.73C139.87 110.322 141.712 104.246 144.407 106.428ZM167.381 116.585C167.75 116.834 168.791 117.946 169.693 119.055C171.407 121.162 173.603 123.023 174.836 123.413C180.5 125.208 170.252 127.803 162.611 126.509C161.515 126.323 159.485 125.81 158.098 125.368C155.157 124.43 154.148 124.419 151.943 125.301C146.984 127.285 138.23 127.496 134.721 125.717C132.593 124.638 132.638 124.055 134.92 123.093C135.745 122.745 137.624 121.666 139.094 120.695C143.546 117.756 145.587 117.272 147.612 118.675C152.196 121.85 157.503 122.143 160.211 119.371C160.89 118.677 161.574 118.211 162.328 117.93C162.941 117.702 163.851 117.272 164.35 116.975C165.955 116.017 166.448 115.954 167.381 116.585ZM127.433 123.275C127.832 123.699 127.917 124.085 128.07 126.149C128.703 134.672 131.516 143.859 133.491 143.859C133.896 143.859 134.083 143.602 134.719 142.169C136.15 138.943 136.766 138.707 137.405 141.137C138.106 143.801 139.573 148.576 140.156 150.089C141.071 152.466 140.729 153.038 138.396 153.029C129.991 153 117.882 133.633 121.575 126.129C122.927 123.384 126.088 121.844 127.433 123.275ZM162.512 129.836C165.482 130.123 165.354 130.649 162.123 131.43C159.034 132.177 151.85 132.701 150.332 132.29C148.751 131.863 146.965 130.345 147.663 130.022C148.732 129.526 158.095 129.409 162.512 129.836ZM225.653 233.513C203.15 235.083 189.46 247.553 189.477 266.466C189.493 285.41 208.608 295.112 235.363 289.753C240.943 288.636 240.595 288.97 241.575 283.794C242.597 278.406 242.548 278.345 238.12 279.464C218.384 284.454 205.594 274.853 209.813 258.218C212.038 249.45 218.113 243.623 226.138 242.56C232.55 241.711 236.779 244.414 237.101 249.57C237.241 251.83 237.267 251.845 240.691 251.845C244.12 251.845 243.697 252.506 245.519 244.32C247.557 235.166 247.66 235.715 243.741 234.819C237.821 233.464 232.183 233.057 225.653 233.513ZM75.1425 234.755C74.8176 235.272 74.0082 238.682 74.0082 239.535C74.0082 240.19 74.2788 240.452 75.6892 241.156C77.1523 241.887 77.8982 243.012 78.0005 244.641C78.0773 245.858 72.3473 273.07 71.168 277.087C70.1081 280.701 68.348 283.002 66.1676 283.622C64.0842 284.216 64.0757 284.224 63.5701 286.233C62.4226 290.793 60.944 290.362 77.7315 290.362C93.9196 290.362 92.213 290.659 92.8799 287.728C93.6405 284.382 93.5513 283.924 92.0161 283.317C91.1198 282.963 90.0203 281.844 89.7435 281.004C89.5419 280.394 91.8083 268.763 92.6876 265.891C92.8481 265.368 92.8442 265.362 95.5944 270.298C103.416 284.334 107.12 288.285 113.947 289.872C116.007 290.35 131.557 290.555 132.155 290.111C132.527 289.835 133.479 286.409 133.491 285.302C133.5 284.467 132.845 284.05 131.254 283.881C127.968 283.529 127.516 283.059 117.803 269.911C110.38 259.866 110.088 259.436 110.442 259.101C112.527 257.129 130.345 242.637 131.24 242.186C132.684 241.458 134.682 240.837 136.183 240.65C137.817 240.445 138.068 240.167 138.535 238.032C139.437 233.916 140.729 234.302 126.035 234.302C112.725 234.302 113.291 234.255 113.025 235.374C112.024 239.58 112.06 240.052 113.429 240.818C115.558 242.011 115.565 242.002 105.621 250.271C94.526 259.498 94.177 259.783 94.0987 259.69C93.9708 259.539 97.3948 244.286 97.722 243.547C98.1818 242.51 99.327 241.464 100.634 240.887C102.08 240.249 102.113 240.199 102.618 237.876C103.481 233.903 105.013 234.302 88.8689 234.302H75.4286L75.1425 234.755ZM143.303 234.755C142.977 235.272 142.168 238.682 142.168 239.535C142.168 240.194 142.317 240.339 143.787 241.107C144.468 241.463 145.109 242 145.479 242.527C146.627 244.161 146.748 243.415 141.482 267.276C136.267 290.915 136.559 289.392 137.126 289.959C137.716 290.548 159.596 290.596 160.281 290.009C160.756 289.602 161.843 284.992 161.626 284.307C161.555 284.084 161.153 283.727 160.732 283.512C157.348 281.785 157.297 280.774 160.016 269.238L160.123 268.785H169.458C176.61 268.785 178.871 268.726 179.132 268.533C179.464 268.286 181.289 260.769 181.289 259.648C181.289 258.49 181.373 258.5 171.543 258.5C163.097 258.5 162.535 258.479 162.539 258.148C162.541 257.954 163.251 254.573 164.116 250.636L165.689 243.477L172.128 243.423C181.829 243.342 182.898 243.851 182.901 248.554C182.902 250.727 183.171 250.887 186.672 250.802C188.842 250.749 189.405 250.673 189.679 250.399C190 250.078 193.187 236.451 193.187 235.401C193.187 234.234 194.717 234.302 168.019 234.302H143.589L143.303 234.755ZM294.015 290.16C294.015 290.76 294.026 290.766 295.124 290.766H296.233V294.496V298.226H296.939H297.645V294.496V290.766H298.754C299.852 290.766 299.863 290.76 299.863 290.16V289.555H296.939H294.015V290.16ZM301.88 293.891V298.226H302.484H303.089L303.096 295.151L303.103 292.076L303.933 293.841C304.987 296.082 305.175 296.09 306.259 293.942L307.099 292.278L307.11 295.252L307.123 298.226H307.728H308.332V293.891V289.555H307.714C307.127 289.555 307.047 289.661 306.129 291.623L305.161 293.69L304.124 291.623C303.155 289.693 303.046 289.555 302.483 289.555H301.88V293.891Z" fill="white"/>
</g>
<defs>
<clipPath id="clip0_115_4">
<rect width="310" height="310.299" fill="white"/>
</clipPath>
</defs>
</svg>
