<svg width="998" height="398" viewBox="0 0 998 398" fill="none" xmlns="http://www.w3.org/2000/svg">
<path d="M776 0V198.094L773.473 200.181L770.945 202.269L768.523 204.46L766.206 206.652L763.995 208.844L761.784 211.14L759.678 213.436L757.571 215.732V0H536.113V180.351H517.79V0H296.331V180.664H278.008V0H56.5494V205.922L0 392.639H49.7045L74.662 309.978H81.8228L123.103 392.639H183.127L143.111 309.978H233.885L208.717 392.639H262.949L287.801 310.187H299.806V309.978H316.866H318.235H420.698L396.688 392.43H451.447L474.719 309.978H499.361L499.992 392.43H545.906L598.664 309.978H633.204L615.302 392.43H669.219L686.805 309.978H717.976L717.765 314.674L717.877 319.475L718.087 324.068L718.508 328.66L718.824 330.852L719.139 333.044L719.56 335.235L719.981 337.427L720.507 339.619L721.033 341.706L721.665 343.794L722.296 345.881L723.034 347.968L723.772 349.951L724.613 351.934L725.457 353.813L726.405 355.796L727.353 357.675L728.406 359.449L729.46 361.328L730.619 363.102L731.882 364.772L733.146 366.546L734.515 368.112L735.884 369.782L737.253 371.347L738.832 372.913L740.412 374.374L742.413 376.044L744.414 377.714L746.52 379.279L748.731 380.74L750.943 382.202L753.154 383.558L755.471 384.706L757.893 385.958L760.21 387.002L762.632 388.046L765.054 388.985L767.581 389.925L770.108 390.76L772.636 391.491L775.163 392.221L777.69 392.847L782.745 393.995L787.905 394.83L792.96 395.561L798.014 396.187L802.964 396.604L807.808 396.814L812.547 397.023H817.075L823.183 396.924L829.29 396.825L835.503 396.512L841.716 396.198L847.929 395.676L854.143 395.154L860.356 394.527L866.569 393.797L872.887 392.961L879.205 392.022L885.524 390.978L891.842 389.935L898.16 388.787L904.479 387.535L910.797 386.282L917.221 384.821L935.965 309.988H997.464V0.00965572L776 0ZM77.084 302.255L77.3996 301.107L78.1374 302.255H77.084ZM270.005 191.205L266.845 201.747L237.36 298.811L236.201 302.255H139.32L131.843 286.391L236.201 180.664H169.121L87.509 267.813L113.941 180.664H64.447V7.82781H270.004L270.005 191.205ZM327.186 273.24L325.606 273.339L324.132 273.438L322.552 273.537H320.867H318.656H316.761L314.97 273.636H313.285L300.122 273.537L306.23 251.202L309.073 240.139L316.023 214.151H318.235H320.551L322.763 214.052H324.869H335.084L341.297 214.151L346.983 214.36L349.511 214.459L351.933 214.668L354.249 214.981L356.355 215.295L358.251 215.608L360.041 216.13L361.726 216.653L363.2 217.279L364.464 217.905L365.623 218.741L366.676 219.577L367.518 220.62L368.044 221.456L368.465 222.291L368.886 223.231L369.202 224.274L369.412 225.422L369.523 226.57V227.822V229.179L369.412 230.64L369.313 232.101L368.997 233.771L368.682 235.441L367.733 238.989L366.575 242.956L365.416 246.295L364.152 249.531L362.783 252.557L361.309 255.375L360.571 256.628L359.834 257.88L358.99 259.133L358.042 260.28L357.094 261.428L356.146 262.471L355.092 263.515L354.039 264.455L352.88 265.29L351.721 266.23L350.458 266.96L349.089 267.796L347.72 268.526L346.246 269.152L344.771 269.779L343.192 270.301L341.507 270.928L339.717 271.345L337.821 271.762L335.926 272.179L333.819 272.492L331.713 272.806L329.502 273.015L327.185 273.224L327.186 273.24ZM476.931 302.255L498.519 226.065L499.362 302.255H476.931ZM509.786 180.351H458.397L423.014 302.255H368.466L370.993 301.211L373.52 300.168L375.942 299.124L378.364 297.977L380.681 296.829L382.893 295.472L385.104 294.22L387.21 292.863L389.316 291.402L391.317 289.941L393.213 288.48L395.108 286.81L396.898 285.244L398.583 283.47L400.268 281.8L401.848 279.921L403.427 278.147L404.902 276.164L406.271 274.285L407.64 272.198L408.903 270.11L410.062 268.023L411.221 265.831L412.274 263.535L413.327 261.239L414.276 258.943L415.118 256.542L415.961 254.038L416.592 251.533L417.33 249.028L417.856 246.314L418.382 243.705L419.12 239.53L419.751 235.564L420.172 231.807L420.488 228.258L420.599 224.71L420.488 221.474L420.389 218.239L419.968 215.212L419.547 212.394L418.809 209.576L418.071 206.967L417.018 204.462L415.859 202.061L414.595 199.661L413.121 197.469L411.436 195.382L410.067 193.92L408.698 192.459L407.224 191.207L405.644 190.059L403.959 188.912L402.275 187.868L400.484 186.929L398.694 186.093L396.799 185.257L394.903 184.631L392.902 184.005L390.901 183.378L388.795 182.856L386.689 182.439L384.583 182.022L382.372 181.708L377.843 181.082L373.315 180.769L368.682 180.456L363.943 180.357H354.466H345.093H342.145H336.88H330.351H323.084H316.029H310.027H305.814H304.235V7.83338H509.792L509.786 180.351ZM634.679 302.255H603.825L650.58 229.196L634.679 302.255ZM749.568 183.795L749.457 226.065L746.824 229.718L744.402 233.475L741.98 237.233L739.769 240.99L737.662 244.747L735.556 248.609L733.766 252.366L731.976 256.123L730.291 259.776L728.817 263.534L727.342 267.187L726.079 270.735L724.92 274.284L723.867 277.728L722.918 281.068L722.075 284.408L721.549 286.599L721.023 288.896L720.497 291.087L720.076 293.383L719.655 295.575L719.34 297.767L719.024 299.959L718.813 302.255H688.591L714.391 180.664L627.408 180.565L549.587 302.26H543.9V7.83313H749.563L749.568 183.795ZM868.143 352.039L863.825 352.77L859.402 353.396L854.979 354.022L850.662 354.545L846.344 354.962L842.027 355.275L837.815 355.484H833.602H830.864L828.126 355.385L825.494 355.176L822.861 354.863L820.334 354.446L817.912 354.029L815.49 353.506L813.173 352.88L810.961 352.149L808.75 351.419L806.644 350.479L804.643 349.54L802.642 348.392L800.747 347.245L798.957 345.992L797.272 344.74L795.587 343.279L794.112 341.713L792.638 340.148L791.269 338.373L790.006 336.599L788.847 334.616L787.793 332.633L786.74 330.546L785.897 328.354L785.159 325.953L784.528 323.553L783.897 321.048L783.476 318.439L783.16 315.725L782.95 312.907L782.838 309.985H878.667L868.143 352.039ZM989.666 302.255H937.855L946.385 268.23H842.553L834.023 302.255H783.793V295.262L784.424 292.34L784.95 289.417L785.581 286.286L786.213 283.155L787.161 279.711L788.109 276.267L789.163 272.823L790.321 269.483L791.585 266.143L792.954 262.803L794.428 259.568L795.903 256.332L797.587 253.097L799.272 250.07L801.063 246.939L803.063 244.017L805.064 241.094L807.065 238.276L809.276 235.563L811.593 232.953L814.015 230.448L816.437 228.152L819.07 225.856L821.702 223.664L824.441 221.681L827.389 219.803L830.338 218.133L833.391 216.567L836.551 215.106L839.815 213.854L843.185 212.81L846.66 211.975L850.24 211.244L853.926 210.722L857.717 210.409L861.613 210.31L864.667 210.409L867.721 210.618L870.775 211.035L873.724 211.661L875.198 212.079L876.567 212.496L877.936 212.913L879.2 213.539L880.463 214.062L881.727 214.792L882.886 215.522L884.044 216.253L885.098 217.192L886.151 218.132L887.099 219.071L888.048 220.219L888.891 221.263L889.629 222.515L890.26 223.872L890.891 225.229L891.417 226.69L891.838 228.255L892.154 229.821L892.47 231.595L892.581 233.369V235.248V237.231L892.37 239.319H954.29L955.239 235.039L956.082 230.134L956.503 227.525L956.713 224.707L956.923 221.889V218.966L956.824 215.94L956.509 212.809L956.193 211.347L955.983 209.782L955.562 208.216L955.141 206.651L954.615 204.981L954.089 203.415L953.457 201.85L952.719 200.284L951.982 198.719L951.033 197.153L950.085 195.588L949.032 194.022L947.768 192.352L946.399 190.787L945.03 189.221L943.556 187.76L941.976 186.299L940.291 184.942L938.606 183.689L936.816 182.437L934.921 181.185L933.025 180.141L931.024 179.098L928.918 178.054L926.812 177.114L924.601 176.175L922.284 175.339L919.967 174.504L917.651 173.773L915.123 173.147L912.701 172.52L910.069 171.894L907.436 171.372L904.803 170.849L902.065 170.432L899.222 170.119L893.43 169.493L887.533 168.97L881.32 168.761L875.002 168.662L870.263 168.761L865.313 168.86L860.153 169.173L854.783 169.59L849.202 170.217L843.515 170.947L837.723 171.887L831.826 173.139L828.878 173.765L825.824 174.496L822.875 175.331L819.821 176.167L816.767 177.107L813.714 178.15L810.66 179.194L807.711 180.341L804.657 181.594L801.603 182.95L798.655 184.307L795.601 185.768L792.652 187.334L789.704 189.004L786.755 190.674L783.807 192.552V7.81803H989.68V302.245L989.666 302.255Z" fill="white"/>
</svg>
