<svg width="799" height="480" viewBox="0 0 799 480" fill="none" xmlns="http://www.w3.org/2000/svg">
<path d="M82.6738 479.677H712.484L399.25 166.665L82.6738 479.677Z" fill="white"/>
<path d="M70.6401 464.285L119.708 416.451L103.364 399.7L72.545 429.758L18.2533 374.131L0 391.927L70.6401 464.285Z" fill="white"/>
<path d="M130.479 405.556L180.756 356.527L166.949 342.393L135.025 373.514L119.695 357.808L145.277 332.866L130.829 318.078L105.247 343.006L92.1127 329.554L122.986 299.447L109.189 285.318L59.0703 334.184L130.479 405.556Z" fill="white"/>
<path d="M295.039 173.125C274.763 152.354 239.588 154.839 222.649 171.358C205.705 187.877 197.058 220.814 220.985 245.325C247.267 272.243 278.536 262.466 295.48 245.956C320.462 221.6 311.569 190.057 295.039 173.125ZM280.136 231.731C268.921 242.667 255.209 239.7 239.543 223.649C226.377 210.165 227.168 196.618 236.742 187.282C243.325 180.862 256.696 175.12 272.603 191.416C290.752 210.006 291.352 220.796 280.136 231.731Z" fill="white"/>
<path d="M351.591 190.375L370.14 172.285L342.235 143.704L325.532 74.2574L304.269 94.9923L315.33 134.39L277.959 120.638L257.91 140.183L321.622 160.627L351.591 190.375Z" fill="white"/>
<path d="M252.692 286.908C252.692 286.908 207.547 271.516 205.402 271.888C204.706 272.002 215.099 244.366 191.749 232.118C191.749 232.118 174.423 222.745 157.084 238.487L120.127 274.882L191.372 346.582L210.221 328.205L171.668 288.725L233.989 305.144L252.692 286.908ZM182.77 277.063C172.296 287.258 170.882 288.062 170.882 288.062C170.882 288.062 154.46 271.243 153.879 270.648C153.297 270.053 165.622 259.495 167.563 257.6C168.386 256.796 176.06 251.794 182.411 258.295C182.411 258.295 193.24 266.85 182.77 277.063Z" fill="white"/>
<path d="M345.836 87.9414L329.352 71.3317L401.319 0L424.874 23.7288L398.946 74.7209L451.806 50.8649L474.469 73.7032L402.501 145.035L385.13 127.535L423.119 89.8859L371.15 113.447L360.407 102.62L384.562 50.7377L345.836 87.9414Z" fill="white"/>
<path d="M470.795 213.841L420.895 163.571L492.867 92.2393L542.908 142.659L528.369 157.07L497.017 125.486L485.293 137.103L510.02 162.017L494.881 177.019L470.304 152.254L454.573 167.842L485.629 199.13L470.795 213.841Z" fill="white"/>
<path d="M635.339 235.784L653.884 254.474L599.424 308.447L629.888 339.131L612.376 356.5L563.367 307.12L635.339 235.784Z" fill="white"/>
<path d="M625.328 369.552L697.3 298.22L715.404 316.456L643.431 387.784L625.328 369.552Z" fill="white"/>
<path d="M676.251 420.867L659.32 403.807L731.297 332.48L755.879 357.231L734.875 431.293L782.515 384.072L799 400.681L727.033 472.009L705.538 450.365L724.046 372.614L676.251 420.867Z" fill="white"/>
<path d="M602.815 203.014L559.103 158.969L486.98 230.155L505.525 248.836L544.846 209.865L530.693 274.196L549.678 293.327C549.678 293.327 564.645 247.31 565.104 245.393C565.104 245.393 581.32 254.32 599.115 239.032C599.115 239.032 616.181 222.414 602.815 203.014ZM576.124 223.876C576.124 223.876 566.936 230.041 558.839 221.887L546.191 208.539C546.191 208.539 561.471 193.392 563.399 191.479C563.399 191.479 575.174 203.346 576.647 204.827C578.115 206.308 587.399 213.286 576.124 223.876Z" fill="white"/>
</svg>
