<svg width="1219" height="350" viewBox="0 0 1219 350" fill="none" xmlns="http://www.w3.org/2000/svg">
<g clip-path="url(#clip0_117_222)">
<mask id="mask0_117_222" style="mask-type:luminance" maskUnits="userSpaceOnUse" x="-3629" y="-238" width="5111" height="6291">
<path d="M-3628.55 6052.06H1481.33V-237.859H-3628.55V6052.06Z" fill="white"/>
</mask>
<g mask="url(#mask0_117_222)">
<path d="M648.904 93.2445C647.212 95.2927 646.255 97.58 646.255 101.557V210.908H645.649C645.649 210.908 585.734 104.203 582.838 99.2698C580.787 95.7707 578.498 93.364 575.482 91.5547C572.466 89.8734 569.331 88.7895 563.308 88.7895H543.538C538.951 88.7895 536.063 90.3513 534.012 92.7666C532.321 94.8063 531.355 97.102 531.355 101.071V256.072C531.355 260.049 532.321 262.336 534.012 264.385C536.063 266.791 538.951 268.353 543.538 268.353H554.747C559.326 268.353 562.223 266.791 564.273 264.385C565.956 262.336 566.922 260.049 566.922 256.072V144.067H567.528C567.528 144.067 629.732 254.143 632.27 258.24C635.764 264.018 641.668 268.353 650.108 268.353H669.28C673.859 268.353 676.755 266.791 678.806 264.385C680.489 262.336 681.454 260.049 681.454 256.072V116.245H933.304C935.842 116.245 937.764 115.528 939.216 114.324C940.78 112.874 941.506 110.945 941.506 108.06V97.4605C941.506 94.5673 940.78 92.6386 939.216 91.1962C937.764 89.9929 935.842 89.2675 933.304 89.2675H658.43C653.85 89.2675 650.954 90.8378 648.904 93.2445ZM758.857 134.67C717.02 134.67 693.509 167.315 693.509 201.759C693.509 238.491 718.712 270.768 759.096 270.768C779.233 270.768 799.002 263.181 810.331 249.808C815.278 244.03 819.259 235.957 819.259 231.024C819.259 229.334 818.891 227.892 817.934 226.808C816.969 225.604 815.517 224.879 812.988 224.879H793.577C789.716 224.879 787.067 226.321 785.136 229.214C779.472 237.527 771.271 241.862 759.216 241.862C741.13 241.862 729.442 228.131 728.596 213.076H812.509C816.243 213.076 818.891 212.231 820.703 210.43C822.753 208.501 823.718 205.728 823.718 200.547C823.718 184.776 818.772 168.398 808.409 155.87C797.798 143.222 781.642 134.67 758.857 134.67ZM888.212 134.67C855.184 134.67 833.483 150.331 833.483 175.379C833.483 184.289 836.738 191.518 842.044 197.176C848.195 203.808 856.995 208.382 869.776 211.634L897.379 218.615C904.974 220.544 911.724 222.831 911.724 229.453C911.724 239.695 900.874 243.185 889.306 243.185C883.633 243.185 877.73 242.101 872.903 239.695C869.528 238.005 866.64 235.598 864.59 232.347C862.779 229.573 862.181 227.525 859.404 225.963C857.712 224.998 855.662 224.879 852.894 224.879H837.943C834.688 224.879 833.125 225.843 832.04 227.166C830.955 228.489 830.587 230.418 830.587 232.347C830.587 237.16 832.279 243.185 836.26 248.605C845.419 260.886 864.59 270.768 889.058 270.768C913.176 270.768 946.572 260.766 946.572 228.489C946.572 220.185 944.154 213.076 939.695 207.298C934.03 199.95 925.957 194.889 912.211 191.399L884.846 184.409C873.509 181.524 868.204 179.476 868.204 172.486C868.204 165.744 874.235 160.325 888.212 160.325C896.414 160.325 903.889 162.134 908.716 167.195C912.689 171.411 911.971 173.579 915.107 175.26C917.029 176.224 919.199 176.224 922.582 176.224H936.2C938.37 176.224 939.942 175.866 941.139 174.535C942.112 173.451 942.711 171.769 942.711 168.996C942.711 162.732 938.61 154.667 931.382 148.522C921.737 140.209 906.546 134.67 888.212 134.67ZM963.326 139.253H956.576C954.048 139.253 952.117 139.97 950.673 141.174C949.101 142.624 948.375 144.553 948.375 147.438V155.75C948.375 158.644 949.101 160.564 950.673 162.015C952.117 163.218 954.048 163.943 956.576 163.943H963.326V224.034C963.326 239.447 967.546 249.083 975.38 256.798C982.617 263.898 992.023 268.353 1008.42 268.353H1018.66C1021.2 268.353 1023.12 267.636 1024.57 266.433C1026.14 264.982 1027.1 263.053 1027.1 260.169V249.688C1027.1 246.795 1026.14 244.875 1024.57 243.424C1023.12 242.221 1021.2 241.495 1018.66 241.495H1017.22C1010.71 241.495 1006.25 239.814 1003.23 236.921C999.618 233.55 997.807 228.37 997.807 221.627V163.943H1019.75C1022.28 163.943 1024.21 163.218 1025.66 162.015C1027.22 160.564 1027.95 158.644 1027.95 155.75V147.438C1027.95 144.553 1027.22 142.624 1025.66 141.174C1024.21 139.97 1022.28 139.253 1019.75 139.253H997.926V99.9867C997.926 96.8545 996.961 94.5673 995.517 92.7666C993.706 90.5988 991.177 89.2675 987.444 89.2675H973.817C970.075 89.2675 967.546 90.5988 965.735 92.7666C964.291 94.5673 963.326 96.8545 963.326 99.9867V139.253ZM1037.11 257.634C1037.11 260.766 1038.07 263.053 1039.52 264.863C1041.33 267.03 1043.86 268.353 1047.6 268.353H1061.94C1065.68 268.353 1068.21 267.03 1070.02 264.863C1071.47 263.053 1072.43 260.766 1072.43 257.634V99.9952C1072.43 96.8631 1071.47 94.5759 1070.02 92.7666C1068.21 90.5988 1065.68 89.2675 1061.94 89.2675H1047.6C1043.86 89.2675 1041.33 90.5988 1039.52 92.7666C1038.07 94.5759 1037.11 96.8631 1037.11 99.9952V257.634ZM728.836 187.422C730.399 172.606 741.736 161.528 758.977 161.528C775.858 161.528 787.546 172.606 789.118 187.422H728.836ZM1203 116.245C1205.53 116.245 1207.46 115.528 1208.91 114.324C1210.48 112.874 1211.2 110.945 1211.2 108.06V96.8545C1211.2 92.5191 1210.36 90.3513 1208.91 88.7895C1207.58 87.3387 1205.41 86.5023 1203 86.5023C1201.07 86.5023 1199.15 86.7413 1195.89 87.0997L1099.68 96.6156C1096.91 96.8545 1095.59 97.6994 1094.62 98.7833C1093.54 99.9867 1093.05 101.557 1093.05 103.725V109.98C1093.05 112.396 1093.54 113.48 1094.38 114.444C1095.46 115.647 1097.03 116.245 1099.2 116.245H1203ZM1149.84 134.67C1108 134.67 1084.49 167.315 1084.49 201.759C1084.49 238.491 1109.69 270.768 1150.08 270.768C1170.21 270.768 1189.98 263.181 1201.31 249.808C1206.26 244.03 1210.24 235.957 1210.24 231.024C1210.24 229.334 1209.87 227.892 1208.91 226.808C1207.95 225.604 1206.5 224.879 1203.97 224.879H1184.56C1180.69 224.879 1178.05 226.321 1176.12 229.214C1170.45 237.527 1162.25 241.862 1150.19 241.862C1132.11 241.862 1120.41 228.131 1119.58 213.076H1203.73C1207.46 213.076 1210.12 212.231 1211.92 210.43C1213.97 208.501 1214.94 205.728 1214.94 200.547C1214.94 184.776 1209.99 168.398 1199.63 155.87C1189.02 143.222 1172.62 134.67 1149.84 134.67ZM1119.81 187.422C1121.39 172.606 1132.72 161.528 1149.96 161.528C1166.84 161.528 1178.52 172.606 1180.1 187.422H1119.81Z" fill="white"/>
<path d="M395.383 117.688C364.174 71.1846 336.75 55.5154 329.036 48.1417C320.561 40.0084 314.102 30.7913 309.992 26.3534C300.851 16.3767 289.018 4.06154 269.557 4.06154C250.77 4.06154 238.356 16.2913 234.324 26.8569C233.153 29.8696 232.231 33.5564 231.393 34.8963C229.548 37.9175 221.244 52.076 217.801 57.6917H233.324L225.772 71.9356C234.58 70.0068 240.868 68.5816 249.257 68.5816C256.724 68.5816 262.09 70.3482 264.439 75.0336C268.805 83.7557 268.805 110.144 276.186 130.012C283.064 148.685 299.843 166.958 318.715 180.954C318.963 181.116 319.219 181.201 319.552 181.201C320.475 181.201 321.065 180.536 321.065 179.862C321.065 179.358 320.894 179.025 320.475 178.607C304.704 162.852 291.872 145.425 284.994 126.325C278.194 107.72 279.287 81.5709 273.333 69.9215C269.386 62.2149 261.005 60.2093 253.281 60.2093C247.079 60.2093 241.287 61.4639 238.604 62.0442L245.396 50.5655H233.905C236.34 46.2983 238.852 42.3554 240.116 40.0084C241.201 37.9943 241.628 35.4852 242.97 32.0544C247.327 21.0706 256.972 14.1151 269.557 14.1151C285.328 14.1151 294.554 24.2539 303.696 34.3928C307.891 39.0867 314.768 48.8927 322.739 56.1811C328.19 61.2079 338.596 66.8235 354.614 83.3375C363.841 92.8875 374.58 105.288 385.9 121.879C426.421 181.116 453.008 233.321 467.857 274.047L467.609 274.218C425.08 245.389 388.25 218.155 358.561 184.555C337.502 160.676 319.219 133.025 303.277 97.7436C302.184 95.3966 301.27 93.2204 300.261 90.9588C299.843 90.037 299.424 89.781 298.749 89.781C297.912 89.781 297.323 90.3699 297.323 91.2062C297.323 92.128 297.741 94.1421 298.664 98.1618C307.139 134.698 330.625 167.461 355.708 194.694C380.706 221.765 408.967 245.056 432.205 261.988L450.326 313.766C450.744 315.029 451.249 316.369 451.249 317.624C451.249 318.545 450.992 319.296 450.411 319.8C449.907 320.304 449.241 320.56 447.729 320.56H442.278C439.929 320.56 438.997 320.218 438.16 319.553C437.323 318.878 436.742 317.871 436.315 316.702C434.726 311.837 425.157 284.604 423.32 279.074C422.979 278.075 422.389 277.734 421.723 277.734C420.885 277.734 420.296 278.408 420.296 279.159C420.296 279.833 420.544 280.584 420.971 282.931C423.397 295.332 426.251 309.243 427.421 314.526C427.934 316.95 428.515 319.22 428.515 320.892C428.515 322.394 428.181 323.239 426.926 324.494L421.304 330.195C419.963 331.535 419.202 331.868 418.117 331.868C416.776 331.868 415.682 330.946 415.178 328.599C408.805 298.848 399.16 261.988 396.639 251.755C396.05 249.502 395.631 248.239 394.29 248.239C393.119 248.239 392.701 249.075 392.701 250.083C392.701 250.834 392.863 251.755 392.949 252.429C394.461 262.987 400.586 301.451 407.207 336.562C408.386 342.595 410.65 345.941 415.853 345.941C418.203 345.941 420.458 345.019 422.56 343.014C426.003 339.574 427.002 338.652 431.12 334.633C434.051 331.782 436.067 330.613 441.099 330.613H453.513C456.451 330.613 458.041 329.862 459.467 328.514C460.809 327.259 461.646 325.501 461.646 322.983C461.646 320.389 460.979 318.298 460.057 315.695C456.87 307.152 446.635 278.238 443.611 270.113L443.867 269.942C454.35 277.905 469.617 288.044 476.332 288.044C478.425 288.044 479.689 287.122 479.689 283.853C479.689 268.44 454.017 205.004 395.383 117.688Z" fill="white"/>
<path d="M107.412 20.3175C109.172 16.46 113.033 13.7802 117.647 13.7802C123.935 13.7802 128.967 18.6448 128.967 25.0968C128.967 28.8604 127.207 32.1376 124.439 34.1432C125.028 36.328 125.447 38.2483 125.447 40.0917C125.447 47.1326 121.252 52.074 113.537 54.677C112.529 58.9442 110.684 62.8017 107.659 65.6522C102.627 70.5083 97.51 70.5083 97.51 72.5224C97.51 73.6148 98.2703 74.2805 100.363 74.2805C109.676 74.2805 118.817 69.0916 119.911 60.4548C128.804 57.4421 134.17 48.4725 134.17 41.3548C134.17 39.5028 133.999 37.9154 133.247 36.4134C135.682 34.0579 138.535 30.0382 138.535 24.0897C138.535 18.8923 136.263 13.618 132.239 9.76045C128.719 6.32109 123.764 4.05948 117.98 4.05948C109.59 4.05948 104.14 8.59124 101.038 13.0291C91.8884 13.0291 80.0644 23.168 80.0644 37.6679H78.8085C77.9627 32.6412 72.7683 29.2786 68.4027 29.0311C64.8828 18.4741 56.9118 9.42761 43.8234 9.42761C42.3197 9.42761 40.4744 9.51295 38.8768 9.76045C35.0237 6.23575 30.7435 4.05948 24.7887 4.05948C13.3748 4.05948 4.0625 13.1998 4.0625 24.7554C4.0625 31.9669 7.33461 36.9084 13.5456 41.2694C13.5456 41.2694 13.4602 42.1912 13.4602 42.6093C13.4602 51.8265 23.5243 66.2411 38.4581 66.2411C38.4581 68.5795 41.3971 71.7714 44.6692 72.3517V73.5295H43.4048C22.8579 73.5295 14.1351 83.4208 14.1351 90.035C8.00954 92.5526 4.0625 99.3375 4.0625 105.619C4.0625 118.105 13.2125 126.989 25.2928 126.989C29.3167 126.989 33.4261 125.401 36.2796 123.217C38.3727 123.968 41.0553 124.386 43.8234 124.386C49.6158 124.386 56.0746 122.38 60.6026 115.758C61.2775 115.843 61.8584 115.843 62.5334 115.843C69.9149 115.843 76.2882 110.978 79.6458 104.612C80.483 103.024 80.8162 101.77 80.8162 100.84C80.8162 99.9263 80.3976 99.1668 79.4749 99.1668C78.3044 99.1668 78.1336 100.259 76.0405 102.188C71.3416 106.464 64.1224 108.051 56.741 108.051C53.1357 113.334 48.6931 116.099 43.5756 116.099C39.7994 116.099 36.8691 115.092 33.8447 113.078C31.4099 115.758 28.394 116.85 25.4551 116.85C18.834 116.85 14.1351 112.241 14.1351 105.533C14.1351 100.84 17.151 96.6577 21.3457 95.0617C22.0976 86.7663 30.9912 81.1507 42.0634 81.1507C43.4902 81.1507 44.9169 81.236 46.4291 81.4067C48.1036 78.7269 52.1275 75.8764 57.8345 75.1168C59.0135 74.9547 59.9276 74.8694 60.6026 74.5365C61.2775 74.1951 61.6107 73.5294 61.6107 72.7699C61.6107 72.1042 61.3544 71.5153 60.688 71.0971C60.0985 70.7643 59.0904 70.6022 57.9199 70.3461C52.6316 69.3391 46.3437 66.0704 43.157 58.1078C30.4872 58.1078 21.1749 47.9689 21.1749 36.5755V35.8245C16.9801 34.1432 14.1351 30.1235 14.1351 25.3443C14.1351 19.0629 19.0818 14.0362 25.3697 14.0362C29.1459 14.0362 32.418 15.8796 34.5196 18.6448C36.2796 18.1412 38.2873 17.9705 40.2181 17.9705C49.6158 17.9705 59.6799 23.919 61.6107 35.4831C73.691 36.5755 76.5445 46.7997 77.2963 51.0755C77.715 53.2517 78.0481 55.0952 79.4749 55.0952C80.9871 55.0952 81.3203 53.4139 81.8243 51.1523C82.747 46.8851 84.3446 43.4457 87.5313 40.7659C87.5313 29.7821 95.75 20.3175 107.412 20.3175Z" fill="white"/>
<path d="M131.82 86.0112C127.873 91.6269 125.028 94.392 116.049 104.949C104.225 118.945 98.0138 130.262 87.6934 155.396C89.3764 155.225 91.8113 155.063 94.4939 155.063C95.8352 155.063 96.9202 155.063 98.6887 155.14L99.9446 152.46C105.737 140.06 113.529 123.298 124.438 110.394L128.215 105.956C139.449 92.8046 146.412 85.0042 150.778 67.0734C152.29 60.7068 153.546 55.0143 157.826 50.9008C161.679 47.2139 166.549 45.6265 171.495 45.6265C175.69 45.6265 178.8 46.6336 183.328 48.5538C187.437 50.3119 188.941 50.6532 193.307 50.6532C194.819 50.6532 195.904 50.5679 196.912 50.4826L191.043 58.3598L199.014 63.9754C189.026 66.9027 183.747 76.5466 181.978 80.9845C181.645 81.9062 181.483 82.4951 181.483 83.0839C181.483 83.7582 181.816 84.4239 182.824 84.4239C183.909 84.4239 184.746 83.5875 186.173 81.9062C191.043 76.0431 194.904 72.0148 212.845 66.4077L200.184 56.8492L209.744 42.8613H200.773C195.067 42.8613 191.29 42.776 186.344 40.5144C179.629 37.4164 176.194 36.0765 170.239 36.0765C162.943 36.0765 156.314 38.671 150.863 43.6977C144.567 49.4755 142.636 57.1906 140.38 65.6567C138.612 72.1855 136.519 79.3971 131.82 86.0112Z" fill="white"/>
<path d="M151.113 143.076C146.328 149.528 139.784 157.985 134.752 166.955C136.35 167.715 141.638 170.565 143.483 171.564C149.267 162.85 157.324 152.131 162.603 143.998C167.388 136.624 169.318 133.441 169.652 123.549C169.737 121.876 169.737 120.281 169.899 118.693C170.318 113.581 171.668 108.384 176.529 103.613C180.134 100.003 185.337 98.1679 190.54 98.1679C195.572 98.1679 198.503 99.5846 202.868 99.5846C205.97 99.5846 208.234 98.8336 210.25 98.0826L211.847 97.4937L207.986 106.719L217.042 110.398C211.258 113.999 198.588 129.506 198.588 147.855C198.588 154.478 199.596 160.588 201.023 166.033C201.194 166.622 201.527 167.211 202.45 167.211C203.287 167.211 203.876 166.708 203.962 165.786L204.047 163.857C204.295 158.242 204.714 149.366 206.978 141.403C210.754 127.996 220.903 115.424 231.053 109.391L216.623 103.109L222.834 87.9437L216.042 89.369C211.933 90.2053 208.908 90.9564 205.303 90.9564C202.954 90.9564 200.271 90.6235 197.084 89.864C194.65 89.2836 192.044 88.7801 188.362 88.7801C181.732 88.7801 174.598 91.2892 169.737 95.9831C160.843 104.449 160.339 113.581 159.75 121.714C158.998 132.519 156.982 135.199 151.113 143.076Z" fill="white"/>
<path d="M366.358 148.186C365.769 147.435 365.264 147.094 364.598 147.094C363.59 147.094 363.086 147.768 363.086 148.519C363.086 149.697 363.923 151.122 366.025 154.647C372.398 165.451 380.284 176.341 390.015 186.574C400.497 197.711 412.825 208.098 425.999 217.4L430.109 220.251C430.698 220.678 431.117 220.925 431.621 220.925C432.458 220.925 433.048 220.089 433.048 219.414C433.048 218.996 432.877 218.57 432.373 218.151C420.13 207.014 406.956 193.436 394.628 180.37C384.974 170.06 375.081 159.17 366.358 148.186Z" fill="white"/>
<path d="M96.4226 110.229C97.6785 108.138 101.455 103.026 102.967 101.43C96.508 88.3642 85.9399 75.8784 81.3265 70.9285L77.4648 74.7007C81.9159 81.1527 89.3743 93.6385 96.4226 110.229Z" fill="white"/>
<path d="M34.9364 34.5646C34.176 33.8904 34.0137 33.4722 34.0137 32.9687C34.0137 32.3884 34.4323 31.7141 35.355 31.7141C35.6882 31.7141 36.0214 31.7995 36.4485 31.9702C42.651 34.4793 47.9394 37.4151 52.6382 41.0166C56.5767 44.0293 60.4383 47.7247 64.206 52.1626L60.6861 56.1823C56.329 52.5722 42.2324 40.7691 34.9364 34.5646Z" fill="white"/>
<path d="M94.4088 62.635L89.8809 59.8699C92.8112 52.9143 96.4251 46.5477 100.697 41.7684C103.721 38.3376 106.575 35.5639 109.761 32.8073C110.513 32.2184 110.932 31.7149 111.684 31.7149C112.529 31.7149 113.119 32.3891 113.119 33.0548C113.119 33.3876 112.948 33.8058 112.615 34.3094C107.497 42.2719 97.5101 58.0264 94.4088 62.635Z" fill="white"/>
<path d="M37.5362 101.514C36.4427 101.932 35.9386 102.188 35.3577 102.188C34.435 102.188 34.0078 101.428 34.0078 100.84C34.0078 100.259 34.2641 99.9264 34.8536 99.4144C45.1655 91.375 54.23 88.1916 66.7289 86.0922L68.2326 91.1275L37.5362 101.514Z" fill="white"/>
<path d="M252.695 36.4933C252.695 33.5575 254.207 28.2747 259.658 28.2747C261.504 28.2747 263.263 28.6929 264.69 29.3671C266.706 30.2888 268.048 31.6287 268.048 33.0539C268.048 34.5645 266.536 36.0751 264.272 37.9185C261.922 39.8388 258.906 41.6054 256.471 41.6054C253.541 41.6054 252.695 38.8317 252.695 36.4933Z" fill="white"/>
<path d="M167.555 60.959C167.555 57.3575 169.733 53.4146 173.928 53.4146C175.773 53.4146 177.952 54.1656 179.55 55.6847C180.472 56.5211 180.891 57.4343 180.891 58.3645C180.891 60.3787 178.96 62.2989 176.696 63.6388C174.936 64.6459 173.091 65.3201 171.502 65.3201C168.896 65.3201 167.555 63.7156 167.555 60.959Z" fill="white"/>
<path d="M187.268 112.661C187.268 111.825 187.353 110.818 187.686 109.811C188.361 107.634 189.779 105.535 193.308 105.535C194.905 105.535 196.657 105.953 198.083 106.969C199.348 107.805 199.852 108.889 199.852 109.981C199.852 113.583 193.812 117.773 190.787 117.773C188.609 117.773 187.268 115.674 187.268 112.661Z" fill="white"/>
<path d="M154.218 218.407C142.898 218.407 137.857 213.047 137.857 206.262C137.857 194.357 158.746 182.716 177.533 175.505L182.403 181.794C170.826 186.394 147.511 196.294 147.511 204.837C147.511 207.85 149.271 210.035 156.311 210.035C168.562 210.035 181.736 204.078 193.893 198.129C194.816 197.711 195.91 197.293 196.918 197.293C198.507 197.293 199.515 197.796 200.685 199.469L202.702 202.234C188.528 210.035 170.826 218.407 154.218 218.407Z" fill="white"/>
<path d="M185.424 221.595C174.352 227.791 162.861 231.904 152.712 231.904C141.383 231.904 131.319 227.04 122.929 214.383C119.409 209.024 116.641 202.324 113.284 196.376C109.26 189.335 104.894 185.563 97.265 185.563C90.3022 185.563 83.5016 188.413 76.291 191.511L76.6242 193.107C77.2137 195.701 78.2218 197.545 80.6481 197.545C81.7417 197.545 82.8352 197.05 83.4247 196.879C87.4487 195.616 90.379 194.524 94.497 194.524C100.785 194.524 103.801 198.219 108.081 207.265L109.679 210.619C105.313 212.13 95.0779 212.881 87.4487 212.881H83.8434L84.4329 216.483C84.6806 217.993 85.2701 219.248 86.526 219.837C88.0296 220.588 90.2167 220.673 93.9929 220.673C103.553 220.673 110.516 219.504 114.54 218.488C124.86 233.833 139.034 239.696 152.712 239.696C164.365 239.696 176.197 235.42 187.526 229.224L185.424 221.595Z" fill="white"/>
<path d="M196.828 225.365L194.82 217.65C212.095 208.356 227.866 200.897 253.035 198.465C253.539 208.1 252.864 220.253 259.998 220.253C266.533 220.253 280.792 203.406 297.238 182.292C298.75 183.718 301.177 185.228 303.364 186.901L299.169 192.346C283.142 212.965 269.472 230.563 258.229 230.563C247.747 230.563 243.799 218.239 243.637 209.022C227.618 210.618 212.514 215.978 196.828 225.365Z" fill="white"/>
<path d="M418.786 57.1882C412.241 57.1882 410.396 53.5781 410.396 48.4746C410.396 37.9175 417.026 22.7519 421.22 14.1151H411.062C405.783 24.3393 384.979 57.1028 373.736 70.6811L380.195 77.6281C386.235 70.9286 392.865 59.5351 400.076 48.3039H401.417C401.417 48.8927 401.34 49.5584 401.34 50.1473C401.34 59.6205 406.201 66.6528 418.196 66.6528C425.578 66.6528 437.154 62.966 448.064 59.2791C457.12 56.1811 465.424 52.9978 469.533 51.8286V41.7751C464.834 43.1918 455.274 46.8786 445.373 50.318C434.975 53.9195 424.74 57.1882 418.786 57.1882Z" fill="white"/>
<path d="M441.182 87.6039C451.246 83.3367 469.281 76.1251 479.687 72.3529V62.1287C458.798 69.8438 422.139 85.0094 397.141 98.5876C397.816 99.4155 402.181 105.535 402.677 106.294C413.245 101.933 422.728 99.0826 431.28 99.0826C443.283 99.0826 453.091 99.0826 469.537 95.2251V87.5185C460.31 89.1998 450.494 91.2054 444.121 91.2054C440.344 91.2054 439.251 90.7019 439.251 89.4473C439.251 88.6963 439.755 88.1927 441.182 87.6039Z" fill="white"/>
</g>
<path d="M226.273 134.697L222.24 142.412H265.111L261.924 134.697H226.273Z" fill="white"/>
<mask id="mask1_117_222" style="mask-type:luminance" maskUnits="userSpaceOnUse" x="-3629" y="-238" width="5111" height="6291">
<path d="M-3628.55 6052.06H1481.33V-237.859H-3628.55V6052.06Z" fill="white"/>
</mask>
<g mask="url(#mask1_117_222)">
<path d="M71.843 180.7C76.371 180.7 80.0617 179.19 83.5901 177.773C86.9391 176.425 90.2967 175.085 94.8247 175.085C105.564 175.085 118.814 180.282 130.476 185.224C131.151 185.48 131.903 185.642 132.655 185.642C134.509 185.642 135.935 184.805 136.85 183.047L138.362 180.282C125.53 172.823 105.06 164.861 94.406 164.861C89.5448 164.861 86.0164 166.124 82.6674 167.455C78.8913 168.974 75.6191 170.562 72.1762 170.562C63.7097 170.562 41.9839 162.181 41.9839 154.056C41.9839 144.506 76.5418 140.819 80.318 140.819L83.7524 133.019C58.6776 133.019 28.81 141.818 28.81 153.467C28.81 156.821 30.7408 158.494 30.7408 161.592C30.7408 165.782 28.81 168.633 28.81 173.327C28.81 176.425 30.6553 180.368 32.8339 183.807C35.1833 187.408 37.9514 189.747 37.9514 192.768C37.9514 195.03 36.4478 197.709 36.4478 202.992C36.4478 214.3 42.9066 221.179 55.4824 234.663L58.0027 237.343C47.6054 241.371 28.2205 249.752 23.6925 251.672C8.00686 258.21 4.06836 266.172 4.06836 278.744C4.06836 283.6 4.06836 289.13 4.40155 294.071H7.41736C13.7138 294.071 14.4656 290.308 14.4656 286.706C14.4656 284.274 14.3802 281.509 14.3802 278.488C14.4657 271.541 14.722 265.336 25.9565 260.309C30.493 258.295 52.7143 249.249 69.2458 242.208C74.107 240.108 78.635 238.35 83.667 238.35C89.2885 238.35 95.7473 240.783 103.804 245.562C110.596 249.582 117.729 255.026 123.351 261.308L130.476 255.863C124.351 248.66 115.884 242.208 107.409 237.181C98.934 232.154 91.3902 229.218 85.0169 229.218C82.2488 229.218 79.9848 229.722 78.054 230.226C75.79 230.814 73.6883 231.48 71.0057 231.48C67.9045 231.48 65.2987 230.729 61.5226 226.368C60.0958 224.781 51.0398 214.471 49.109 211.458C48.1864 210.033 46.5119 207.183 46.5119 203.829C46.5119 202.403 46.7596 200.731 47.6054 199.22C55.397 205.254 65.051 208.941 76.7896 210.366L75.2005 202.403C58.3359 197.966 40.3863 183.133 40.3863 173.583C40.3863 171.569 40.8903 170.143 41.6507 168.385C48.1864 174.419 63.5388 180.7 71.843 180.7Z" fill="white"/>
<path d="M192.553 182.212C203.121 174.753 214.022 173.916 222.83 173.916C228.119 173.916 234.321 174.667 240.866 175.504C246.154 176.178 250.93 176.681 256.637 176.681C268.127 176.681 279.704 172.491 284.736 170.306C286.163 172.073 288.597 174.42 290.528 176.092C288.093 177.603 272.664 185.975 256.893 185.975C249.93 185.975 243.3 185.147 237.593 184.388C232.561 183.722 227.111 183.133 221.822 183.133C216.038 183.133 204.377 184.806 197.166 188.245L192.553 182.212Z" fill="white"/>
<path d="M348.323 212.126C335.739 238.608 316.61 257.879 296.986 269.025C287.674 274.299 279.284 277.739 261.173 277.739H221.993C207.99 277.739 199.182 279.582 192.304 281.34C184.914 283.269 180.224 285.189 172.757 285.189C161.685 285.189 151.45 279.744 146.503 274.555L155.73 267.267L151.117 261.139C148.434 263.077 115.636 287.289 108.75 292.734L108.332 292.486C108.502 290.813 108.502 289.303 108.502 287.792C108.502 269.358 99.9419 264.911 86.9474 259.723L78.1392 264.911C96.0034 270.868 100.446 275.639 100.446 288.961C100.446 299.527 96.6698 303.709 91.2191 306.901C85.5976 310.169 78.6347 311.671 72.5177 311.671C69.9119 311.671 68.7415 312.175 67.8188 313.097C66.8107 314.104 66.3066 315.614 66.3066 317.705V320.641H68.4083C79.6428 320.641 90.0487 318.883 101.454 309.913L138.618 280.922C143.898 286.956 157.242 295.337 173.005 295.337C181.899 295.337 187.605 293.152 195.824 291.061C202.198 289.465 208.409 288.04 221.993 288.04H261.335C281.472 288.04 291.202 283.849 301.933 277.824C325.256 264.749 345.137 242.628 356.38 217.23C353.441 215.395 350.673 213.714 348.323 212.126Z" fill="white"/>
<path d="M285.158 243.634C295.308 227.376 304.364 212.961 326.594 201.235C324.244 199.81 320.895 197.633 319.127 196.456C310.489 200.228 301.938 207.764 294.641 215.394C277.862 232.821 279.366 242.874 261.673 249.668C257.221 251.34 251.771 253.184 244.808 254.78C240.699 242.123 230.387 229.552 219.477 229.552C211.925 229.552 203.202 233.486 193.138 237.933C181.314 243.13 170.489 249.079 167.055 251.34L171.668 257.545C175.188 255.608 185.338 250.581 195.487 246.228C204.295 242.456 212.266 239.358 217.631 239.358C226.269 239.358 231.89 249.164 235 257.033C223.672 259.721 205.047 260.387 199.434 260.387C196.828 260.387 195.906 260.805 194.983 261.565C194.146 262.316 193.471 263.656 193.052 265.499L192.386 268.349H198.417C229.797 268.349 259.409 263.408 278.443 251.844C281.134 252.603 283.484 253.098 286.5 253.098C297.401 253.098 308.644 247.15 315.692 241.705C318.204 239.776 318.794 238.01 318.794 236.089C318.794 235.168 318.708 234.331 318.623 233.486L318.29 230.226C308.225 238.18 299.836 244.137 289.439 244.137C287.593 244.137 286.252 243.967 285.158 243.634Z" fill="white"/>
</g>
</g>
<defs>
<clipPath id="clip0_117_222">
<rect width="1219" height="350" fill="white"/>
</clipPath>
</defs>
</svg>
